{
.appVersion = "1344";
DisplayStrings = (
"/kaf-ar/kashida-ar/kashida-ar/kashida-ar/kashida-ar/kashida-ar/kashida-ar/kashida-ar/kashida-ar/kashida-ar/kashida-ar/kashida-ar/kashida-ar/kashida-ar/kashida-ar/noon-ar/space/feh-ar/yeh-ar/kaf-ar/waw-ar/noon-ar/space \012/waw-ar/alef-ar/lam-ar/sheen-ar/meem-ar/seen-ar/space/waw-ar/dad-ar/hah-ar/alef-ar/heh-ar/alef-ar \012/waw-ar/alef-ar/lam-ar/qaf-ar/meem-ar/reh-ar/space/alefHamzabelow-ar/thal-ar/alef-ar/space/teh-ar/lam-ar/alef-ar/heh-ar/alef-ar/space \012/waw-ar/alef-ar/lam-ar/noon-ar/heh-ar/alef-ar/reh-ar/space/alefHamzabelow-ar/thal-ar/alef-ar/space/jeem-ar/lam-ar/alef-ar/heh-ar/alef-ar/space \012/waw-ar/alef-ar/lam-ar/lam-ar/yeh-ar/lam-ar/space/alefHamzabelow-ar/thal-ar/alef-ar/space/yeh-ar/ghain-ar/sheen-ar/alef-ar/heh-ar/alef-ar/space \012\012/keheh-ar/noon-ar/teh-ar/space/keheh-ar/noon-ar/zain-ar/alef-ar/space/meem-ar/khah-ar/feh-ar/yeh-farsi/alef-ar/space/space/feh-ar/alefHamzaabove-ar/hah-ar/beh-ar/beh-ar/behDotless-ar.fina/teh-ar/space/alefHamzaabove-ar/noon-ar/space/alefHamzaabove-ar/ain-ar/reh-ar/feh-ar/space/space/feh-ar/khah-ar/lam-ar/qaf-ar/teh-ar/space/alef-ar/lam-ar/khah-ar/lam-ar/qaf-ar/space/lam-ar/keheh-ar/yeh-farsi/space/space/alefHamzaabove-ar/ain-ar/reh-ar/feh-ar/space \012\012/waw-ar/space/alef-ar/lam-ar/ain-ar/sad-ar/reh-ar/space \012/alefHamzabelow-ar/noon-ar/space/alef-ar/lam-ar/alef-ar/space/noon-ar/seen-ar/noon-ar/space/lam-ar/feh-ar/alefMaksura-ar/space/khah-ar/seen-ar/reh-ar \012/alefHamzabelow-ar/lam-ar/alef-ar/space/alef-ar/lam-ar/thal-ar/yeh-ar/noon-ar/space/hamza-ar/alef-ar/meem-ar/noon-ar/waw-ar/alef-ar/space/waw-ar/ain-ar/meem-ar/lam-ar/waw-ar/alef-ar/space/alef-ar/lam-ar/sad-ar/lam-ar/hah-ar/teh-ar/space/waw-ar/teh-ar/waw-ar/alef-ar/sad-ar/waw-ar/alef-ar/space/beh-ar/alef-ar/lam-ar/hah-ar/qaf-ar/space/waw-ar/teh-ar/waw-ar/alef-ar/sad-ar/waw-ar/alef-ar/space/beh-ar/alef-ar/lam-ar/sad-ar/beh-ar/reh-ar",

glyphs = (
{
color = 5;
glyphname = "hamza-ar";
layers = (
{
anchors = (
{
name = bottom;
position = "{168, 34}";
},
{
name = top;
position = "{133, 322}";
}
);
layerId = "98B9451C-6456-42E9-9BE3-FFE7D6D9360C";
paths = (
{
closed = 1;
nodes = (
"24 -28 OFFCURVE",
"106 18 OFFCURVE",
"162 40 CURVE SMOOTH",
"214 61 OFFCURVE",
"271 66 OFFCURVE",
"275 72 CURVE SMOOTH",
"283 85 OFFCURVE",
"290 148 OFFCURVE",
"275 148 CURVE SMOOTH",
"264 148 OFFCURVE",
"211 107 OFFCURVE",
"187 107 CURVE SMOOTH",
"149 107 OFFCURVE",
"117 159 OFFCURVE",
"116 191 CURVE SMOOTH",
"117 222 OFFCURVE",
"127 233 OFFCURVE",
"155 233 CURVE SMOOTH",
"177 233 OFFCURVE",
"188 214 OFFCURVE",
"211 214 CURVE SMOOTH",
"227 214 OFFCURVE",
"243 218 OFFCURVE",
"243 239 CURVE SMOOTH",
"243 277 OFFCURVE",
"200 291 OFFCURVE",
"152 291 CURVE SMOOTH",
"87 291 OFFCURVE",
"27 259 OFFCURVE",
"26 169 CURVE SMOOTH",
"27 113 OFFCURVE",
"70 85 OFFCURVE",
"70 72 CURVE SMOOTH",
"70 64 OFFCURVE",
"29 45 OFFCURVE",
"22 34 CURVE SMOOTH",
"11 15 OFFCURVE",
"6 -28 OFFCURVE",
"16 -28 CURVE SMOOTH"
);
}
);
width = 300;
}
);
unicode = 0621;
},
{
color = 5;
glyphname = "alef-ar";
layers = (
{
layerId = "98B9451C-6456-42E9-9BE3-FFE7D6D9360C";
paths = (
{
closed = 1;
nodes = (
"160 -16 OFFCURVE",
"190 100 OFFCURVE",
"190 151 CURVE SMOOTH",
"190 330 OFFCURVE",
"175 700 OFFCURVE",
"125 700 CURVE SMOOTH",
"106 700 OFFCURVE",
"70 619 OFFCURVE",
"70 605 CURVE SMOOTH",
"70 560 OFFCURVE",
"129 296 OFFCURVE",
"129 0 CURVE SMOOTH",
"129 -12 OFFCURVE",
"132 -16 OFFCURVE",
"142 -16 CURVE SMOOTH"
);
}
);
width = 250;
},
{
associatedMasterId = "98B9451C-6456-42E9-9BE3-FFE7D6D9360C";
layerId = "D1D59945-0184-4F2B-9F03-FB1FECCC306B";
name = "لل";
paths = (
{
closed = 1;
nodes = (
"286 0 OFFCURVE",
"340 55 OFFCURVE",
"340 70 CURVE SMOOTH",
"340 86 OFFCURVE",
"286 140 OFFCURVE",
"270 140 CURVE SMOOTH",
"254 140 OFFCURVE",
"200 86 OFFCURVE",
"200 70 CURVE SMOOTH",
"200 55 OFFCURVE",
"254 0 OFFCURVE",
"270 0 CURVE SMOOTH"
);
},
{
closed = 1;
nodes = (
"286 140 OFFCURVE",
"340 195 OFFCURVE",
"340 210 CURVE SMOOTH",
"340 226 OFFCURVE",
"286 280 OFFCURVE",
"270 280 CURVE SMOOTH",
"254 280 OFFCURVE",
"200 226 OFFCURVE",
"200 210 CURVE SMOOTH",
"200 195 OFFCURVE",
"254 140 OFFCURVE",
"270 140 CURVE SMOOTH"
);
},
{
closed = 1;
nodes = (
"286 280 OFFCURVE",
"340 335 OFFCURVE",
"340 350 CURVE SMOOTH",
"340 366 OFFCURVE",
"286 420 OFFCURVE",
"270 420 CURVE SMOOTH",
"254 420 OFFCURVE",
"200 366 OFFCURVE",
"200 350 CURVE SMOOTH",
"200 335 OFFCURVE",
"254 280 OFFCURVE",
"270 280 CURVE SMOOTH"
);
},
{
closed = 1;
nodes = (
"286 420 OFFCURVE",
"340 475 OFFCURVE",
"340 490 CURVE SMOOTH",
"340 506 OFFCURVE",
"286 560 OFFCURVE",
"270 560 CURVE SMOOTH",
"254 560 OFFCURVE",
"200 506 OFFCURVE",
"200 490 CURVE SMOOTH",
"200 475 OFFCURVE",
"254 420 OFFCURVE",
"270 420 CURVE SMOOTH"
);
},
{
closed = 1;
nodes = (
"286 420 OFFCURVE",
"340 475 OFFCURVE",
"340 490 CURVE SMOOTH",
"340 506 OFFCURVE",
"286 560 OFFCURVE",
"270 560 CURVE SMOOTH",
"254 560 OFFCURVE",
"200 506 OFFCURVE",
"200 490 CURVE SMOOTH",
"200 475 OFFCURVE",
"254 420 OFFCURVE",
"270 420 CURVE SMOOTH"
);
},
{
closed = 1;
nodes = (
"286 560 OFFCURVE",
"340 615 OFFCURVE",
"340 630 CURVE SMOOTH",
"340 646 OFFCURVE",
"286 700 OFFCURVE",
"270 700 CURVE SMOOTH",
"254 700 OFFCURVE",
"200 646 OFFCURVE",
"200 630 CURVE SMOOTH",
"200 615 OFFCURVE",
"254 560 OFFCURVE",
"270 560 CURVE SMOOTH"
);
},
{
closed = 1;
nodes = (
"286 700 OFFCURVE",
"340 755 OFFCURVE",
"340 770 CURVE SMOOTH",
"340 786 OFFCURVE",
"286 840 OFFCURVE",
"270 840 CURVE SMOOTH",
"254 840 OFFCURVE",
"200 786 OFFCURVE",
"200 770 CURVE SMOOTH",
"200 755 OFFCURVE",
"254 700 OFFCURVE",
"270 700 CURVE SMOOTH"
);
},
{
closed = 1;
nodes = (
"286 -140 OFFCURVE",
"340 -85 OFFCURVE",
"340 -70 CURVE SMOOTH",
"340 -54 OFFCURVE",
"286 0 OFFCURVE",
"270 0 CURVE SMOOTH",
"254 0 OFFCURVE",
"200 -54 OFFCURVE",
"200 -70 CURVE SMOOTH",
"200 -85 OFFCURVE",
"254 -140 OFFCURVE",
"270 -140 CURVE SMOOTH"
);
},
{
closed = 1;
nodes = (
"286 -280 OFFCURVE",
"340 -225 OFFCURVE",
"340 -210 CURVE SMOOTH",
"340 -194 OFFCURVE",
"286 -140 OFFCURVE",
"270 -140 CURVE SMOOTH",
"254 -140 OFFCURVE",
"200 -194 OFFCURVE",
"200 -210 CURVE SMOOTH",
"200 -225 OFFCURVE",
"254 -280 OFFCURVE",
"270 -280 CURVE SMOOTH"
);
},
{
closed = 1;
nodes = (
"286 -420 OFFCURVE",
"340 -365 OFFCURVE",
"340 -350 CURVE SMOOTH",
"340 -334 OFFCURVE",
"286 -280 OFFCURVE",
"270 -280 CURVE SMOOTH",
"254 -280 OFFCURVE",
"200 -334 OFFCURVE",
"200 -350 CURVE SMOOTH",
"200 -365 OFFCURVE",
"254 -420 OFFCURVE",
"270 -420 CURVE SMOOTH"
);
},
{
closed = 1;
nodes = (
"286 840 OFFCURVE",
"340 895 OFFCURVE",
"340 910 CURVE SMOOTH",
"340 926 OFFCURVE",
"286 980 OFFCURVE",
"270 980 CURVE SMOOTH",
"254 980 OFFCURVE",
"200 926 OFFCURVE",
"200 910 CURVE SMOOTH",
"200 895 OFFCURVE",
"254 840 OFFCURVE",
"270 840 CURVE SMOOTH"
);
},
{
closed = 1;
nodes = (
"286 -560 OFFCURVE",
"340 -505 OFFCURVE",
"340 -490 CURVE SMOOTH",
"340 -474 OFFCURVE",
"286 -420 OFFCURVE",
"270 -420 CURVE SMOOTH",
"254 -420 OFFCURVE",
"200 -474 OFFCURVE",
"200 -490 CURVE SMOOTH",
"200 -505 OFFCURVE",
"254 -560 OFFCURVE",
"270 -560 CURVE SMOOTH"
);
}
);
visible = 1;
width = 200;
}
);
unicode = 0627;
},
{
color = 5;
glyphname = "alef-ar.fina";
layers = (
{
layerId = "98B9451C-6456-42E9-9BE3-FFE7D6D9360C";
paths = (
{
closed = 1;
nodes = (
"178 100 OFFCURVE",
"147 151 OFFCURVE",
"127 340 CURVE SMOOTH",
"118 423 OFFCURVE",
"111 538 OFFCURVE",
"111 681 CURVE SMOOTH",
"111 693 OFFCURVE",
"101 700 OFFCURVE",
"91 700 CURVE SMOOTH",
"70 700 OFFCURVE",
"30 600 OFFCURVE",
"30 582 CURVE SMOOTH",
"30 541 OFFCURVE",
"54 348 OFFCURVE",
"60 280 CURVE SMOOTH",
"80 44 OFFCURVE",
"99 0 OFFCURVE",
"219 0 CURVE",
"219 100 LINE"
);
}
);
width = 219;
}
);
unicode = FE8E;
},
{
color = 5;
glyphname = "behDotless-ar";
layers = (
{
layerId = "98B9451C-6456-42E9-9BE3-FFE7D6D9360C";
paths = (
{
closed = 1;
nodes = (
"102 -17 OFFCURVE",
"30 64 OFFCURVE",
"30 183 CURVE SMOOTH",
"30 253 OFFCURVE",
"85 331 OFFCURVE",
"98 331 CURVE SMOOTH",
"110 331 OFFCURVE",
"115 321 OFFCURVE",
"115 311 CURVE SMOOTH",
"115 301 OFFCURVE",
"100 273 OFFCURVE",
"100 223 CURVE SMOOTH",
"100 129 OFFCURVE",
"144 107 OFFCURVE",
"463 107 CURVE SMOOTH",
"539 107 OFFCURVE",
"770 114 OFFCURVE",
"770 163 CURVE SMOOTH",
"770 191 OFFCURVE",
"729 238 OFFCURVE",
"729 264 CURVE SMOOTH",
"729 291 OFFCURVE",
"774 381 OFFCURVE",
"791 381 CURVE SMOOTH",
"812 381 OFFCURVE",
"857 280 OFFCURVE",
"857 232 CURVE SMOOTH",
"857 184 OFFCURVE",
"840 141 OFFCURVE",
"809 96 CURVE SMOOTH",
"744 3 OFFCURVE",
"622 -17 OFFCURVE",
"317 -17 CURVE SMOOTH"
);
}
);
width = 897;
}
);
unicode = 066E;
},
{
color = 5;
glyphname = "behDotless-ar.fina";
layers = (
{
layerId = "98B9451C-6456-42E9-9BE3-FFE7D6D9360C";
paths = (
{
closed = 1;
nodes = (
"0 273 OFFCURVE",
"55 351 OFFCURVE",
"68 351 CURVE SMOOTH",
"80 351 OFFCURVE",
"85 341 OFFCURVE",
"85 331 CURVE SMOOTH",
"85 321 OFFCURVE",
"70 293 OFFCURVE",
"70 243 CURVE SMOOTH",
"70 149 OFFCURVE",
"134 100 OFFCURVE",
"383 100 CURVE SMOOTH",
"637 100 OFFCURVE",
"787 232 OFFCURVE",
"834 232 CURVE SMOOTH",
"843 232 OFFCURVE",
"849 222 OFFCURVE",
"849 206 CURVE SMOOTH",
"849 184 OFFCURVE",
"838 171 OFFCURVE",
"837 152 CURVE SMOOTH",
"836 124 OFFCURVE",
"856 99 OFFCURVE",
"917 100 CURVE",
"917 0 LINE",
"808 0 OFFCURVE",
"799 115 OFFCURVE",
"787 115 CURVE SMOOTH",
"735 115 OFFCURVE",
"536 -17 OFFCURVE",
"337 -17 CURVE SMOOTH",
"62 -17 OFFCURVE",
"0 84 OFFCURVE",
"0 203 CURVE SMOOTH"
);
}
);
width = 917;
}
);
},
{
color = 5;
glyphname = "behDotless-ar.medi";
layers = (
{
anchors = (
{
name = bottom;
position = "{166, -20}";
},
{
name = top;
position = "{207, 211}";
}
);
layerId = "98B9451C-6456-42E9-9BE3-FFE7D6D9360C";
paths = (
{
closed = 1;
nodes = (
"187 0 OFFCURVE",
"171 70 OFFCURVE",
"157 70 CURVE SMOOTH",
"143 70 OFFCURVE",
"110 0 OFFCURVE",
"0 0 CURVE",
"0 100 LINE",
"144 100 OFFCURVE",
"167 211 OFFCURVE",
"198 211 CURVE SMOOTH",
"209 211 OFFCURVE",
"215 203 OFFCURVE",
"215 194 CURVE SMOOTH",
"215 183 OFFCURVE",
"210 171 OFFCURVE",
"210 159 CURVE SMOOTH",
"210 132 OFFCURVE",
"232 100 OFFCURVE",
"320 100 CURVE",
"320 0 LINE"
);
}
);
width = 320;
}
);
},
{
color = 5;
glyphname = "behDotless-ar.init";
layers = (
{
layerId = "98B9451C-6456-42E9-9BE3-FFE7D6D9360C";
paths = (
{
closed = 1;
nodes = (
"0 100 LINE",
"76 100 OFFCURVE",
"117 113 OFFCURVE",
"117 132 CURVE SMOOTH",
"117 160 OFFCURVE",
"76 207 OFFCURVE",
"76 233 CURVE SMOOTH",
"76 260 OFFCURVE",
"121 350 OFFCURVE",
"138 350 CURVE SMOOTH",
"159 350 OFFCURVE",
"204 229 OFFCURVE",
"204 201 CURVE SMOOTH",
"204 88 OFFCURVE",
"103 0 OFFCURVE",
"0 0 CURVE"
);
}
);
width = 234;
},
{
associatedMasterId = "98B9451C-6456-42E9-9BE3-FFE7D6D9360C";
layerId = "44E6965E-6E2B-41D1-8D37-DBC5546CEDE4";
name = "Jul 19 20, 17:17";
paths = (
{
closed = 1;
nodes = (
"386 0 OFFCURVE",
"440 55 OFFCURVE",
"440 70 CURVE SMOOTH",
"440 86 OFFCURVE",
"386 140 OFFCURVE",
"370 140 CURVE SMOOTH",
"354 140 OFFCURVE",
"300 86 OFFCURVE",
"300 70 CURVE SMOOTH",
"300 55 OFFCURVE",
"354 0 OFFCURVE",
"370 0 CURVE SMOOTH"
);
},
{
closed = 1;
nodes = (
"386 140 OFFCURVE",
"440 195 OFFCURVE",
"440 210 CURVE SMOOTH",
"440 226 OFFCURVE",
"386 280 OFFCURVE",
"370 280 CURVE SMOOTH",
"354 280 OFFCURVE",
"300 226 OFFCURVE",
"300 210 CURVE SMOOTH",
"300 195 OFFCURVE",
"354 140 OFFCURVE",
"370 140 CURVE SMOOTH"
);
},
{
closed = 1;
nodes = (
"386 280 OFFCURVE",
"440 335 OFFCURVE",
"440 350 CURVE SMOOTH",
"440 366 OFFCURVE",
"386 420 OFFCURVE",
"370 420 CURVE SMOOTH",
"354 420 OFFCURVE",
"300 366 OFFCURVE",
"300 350 CURVE SMOOTH",
"300 335 OFFCURVE",
"354 280 OFFCURVE",
"370 280 CURVE SMOOTH"
);
},
{
closed = 1;
nodes = (
"386 420 OFFCURVE",
"440 475 OFFCURVE",
"440 490 CURVE SMOOTH",
"440 506 OFFCURVE",
"386 560 OFFCURVE",
"370 560 CURVE SMOOTH",
"354 560 OFFCURVE",
"300 506 OFFCURVE",
"300 490 CURVE SMOOTH",
"300 475 OFFCURVE",
"354 420 OFFCURVE",
"370 420 CURVE SMOOTH"
);
},
{
closed = 1;
nodes = (
"386 420 OFFCURVE",
"440 475 OFFCURVE",
"440 490 CURVE SMOOTH",
"440 506 OFFCURVE",
"386 560 OFFCURVE",
"370 560 CURVE SMOOTH",
"354 560 OFFCURVE",
"300 506 OFFCURVE",
"300 490 CURVE SMOOTH",
"300 475 OFFCURVE",
"354 420 OFFCURVE",
"370 420 CURVE SMOOTH"
);
},
{
closed = 1;
nodes = (
"386 560 OFFCURVE",
"440 615 OFFCURVE",
"440 630 CURVE SMOOTH",
"440 646 OFFCURVE",
"386 700 OFFCURVE",
"370 700 CURVE SMOOTH",
"354 700 OFFCURVE",
"300 646 OFFCURVE",
"300 630 CURVE SMOOTH",
"300 615 OFFCURVE",
"354 560 OFFCURVE",
"370 560 CURVE SMOOTH"
);
},
{
closed = 1;
nodes = (
"386 700 OFFCURVE",
"440 755 OFFCURVE",
"440 770 CURVE SMOOTH",
"440 786 OFFCURVE",
"386 840 OFFCURVE",
"370 840 CURVE SMOOTH",
"354 840 OFFCURVE",
"300 786 OFFCURVE",
"300 770 CURVE SMOOTH",
"300 755 OFFCURVE",
"354 700 OFFCURVE",
"370 700 CURVE SMOOTH"
);
},
{
closed = 1;
nodes = (
"386 -140 OFFCURVE",
"440 -85 OFFCURVE",
"440 -70 CURVE SMOOTH",
"440 -54 OFFCURVE",
"386 0 OFFCURVE",
"370 0 CURVE SMOOTH",
"354 0 OFFCURVE",
"300 -54 OFFCURVE",
"300 -70 CURVE SMOOTH",
"300 -85 OFFCURVE",
"354 -140 OFFCURVE",
"370 -140 CURVE SMOOTH"
);
},
{
closed = 1;
nodes = (
"386 -280 OFFCURVE",
"440 -225 OFFCURVE",
"440 -210 CURVE SMOOTH",
"440 -194 OFFCURVE",
"386 -140 OFFCURVE",
"370 -140 CURVE SMOOTH",
"354 -140 OFFCURVE",
"300 -194 OFFCURVE",
"300 -210 CURVE SMOOTH",
"300 -225 OFFCURVE",
"354 -280 OFFCURVE",
"370 -280 CURVE SMOOTH"
);
},
{
closed = 1;
nodes = (
"386 -420 OFFCURVE",
"440 -365 OFFCURVE",
"440 -350 CURVE SMOOTH",
"440 -334 OFFCURVE",
"386 -280 OFFCURVE",
"370 -280 CURVE SMOOTH",
"354 -280 OFFCURVE",
"300 -334 OFFCURVE",
"300 -350 CURVE SMOOTH",
"300 -365 OFFCURVE",
"354 -420 OFFCURVE",
"370 -420 CURVE SMOOTH"
);
},
{
closed = 1;
nodes = (
"386 840 OFFCURVE",
"440 895 OFFCURVE",
"440 910 CURVE SMOOTH",
"440 926 OFFCURVE",
"386 980 OFFCURVE",
"370 980 CURVE SMOOTH",
"354 980 OFFCURVE",
"300 926 OFFCURVE",
"300 910 CURVE SMOOTH",
"300 895 OFFCURVE",
"354 840 OFFCURVE",
"370 840 CURVE SMOOTH"
);
}
);
width = 300;
}
);
},
{
color = 5;
glyphname = "hah-ar";
layers = (
{
layerId = "98B9451C-6456-42E9-9BE3-FFE7D6D9360C";
paths = (
{
closed = 1;
nodes = (
"56 200 OFFCURVE",
"60 190 OFFCURVE",
"68 190 CURVE SMOOTH",
"77 190 OFFCURVE",
"93 230 OFFCURVE",
"135 230 CURVE SMOOTH",
"206 230 OFFCURVE",
"339 202 OFFCURVE",
"339 190 CURVE SMOOTH",
"339 188 OFFCURVE",
"336 186 OFFCURVE",
"333 186 CURVE SMOOTH",
"281 179 OFFCURVE",
"83 76 OFFCURVE",
"79 -137 CURVE SMOOTH",
"78 -164 OFFCURVE",
"96 -350 OFFCURVE",
"324 -350 CURVE SMOOTH",
"392 -350 OFFCURVE",
"555 -282 OFFCURVE",
"555 -255 CURVE SMOOTH",
"555 -246 OFFCURVE",
"553 -241 OFFCURVE",
"543 -241 CURVE SMOOTH",
"505 -241 OFFCURVE",
"449 -250 OFFCURVE",
"384 -250 CURVE SMOOTH",
"205 -250 OFFCURVE",
"153 -180 OFFCURVE",
"153 -70 CURVE SMOOTH",
"153 68 OFFCURVE",
"303 147 OFFCURVE",
"449 147 CURVE SMOOTH",
"502 147 OFFCURVE",
"537 132 OFFCURVE",
"560 132 CURVE SMOOTH",
"579 132 OFFCURVE",
"620 201 OFFCURVE",
"620 221 CURVE SMOOTH",
"620 228 OFFCURVE",
"618 232 OFFCURVE",
"610 232 CURVE SMOOTH",
"597 232 OFFCURVE",
"574 228 OFFCURVE",
"555 228 CURVE SMOOTH",
"415 228 OFFCURVE",
"283 330 OFFCURVE",
"155 330 CURVE SMOOTH",
"118 330 OFFCURVE",
"56 244 OFFCURVE",
"56 210 CURVE SMOOTH"
);
}
);
width = 640;
}
);
unicode = 062D;
},
{
color = 5;
glyphname = "hah-ar.fina";
layers = (
{
layerId = "98B9451C-6456-42E9-9BE3-FFE7D6D9360C";
paths = (
{
closed = 1;
nodes = (
"424 165 OFFCURVE",
"406 142 OFFCURVE",
"406 94 CURVE SMOOTH",
"406 24 OFFCURVE",
"493 0 OFFCURVE",
"650 0 CURVE",
"650 100 LINE",
"470 100 OFFCURVE",
"449 125 OFFCURVE",
"449 147 CURVE SMOOTH",
"449 156 OFFCURVE",
"449 165 OFFCURVE",
"441 165 CURVE SMOOTH"
);
},
{
closed = 1;
nodes = (
"56 200 OFFCURVE",
"60 190 OFFCURVE",
"68 190 CURVE SMOOTH",
"77 190 OFFCURVE",
"93 230 OFFCURVE",
"135 230 CURVE SMOOTH",
"206 230 OFFCURVE",
"339 202 OFFCURVE",
"339 190 CURVE SMOOTH",
"339 188 OFFCURVE",
"336 186 OFFCURVE",
"333 186 CURVE SMOOTH",
"281 179 OFFCURVE",
"83 76 OFFCURVE",
"79 -137 CURVE SMOOTH",
"78 -164 OFFCURVE",
"96 -350 OFFCURVE",
"324 -350 CURVE SMOOTH",
"392 -350 OFFCURVE",
"555 -282 OFFCURVE",
"555 -255 CURVE SMOOTH",
"555 -246 OFFCURVE",
"553 -241 OFFCURVE",
"543 -241 CURVE SMOOTH",
"505 -241 OFFCURVE",
"449 -250 OFFCURVE",
"384 -250 CURVE SMOOTH",
"205 -250 OFFCURVE",
"153 -180 OFFCURVE",
"153 -70 CURVE SMOOTH",
"153 68 OFFCURVE",
"303 147 OFFCURVE",
"449 147 CURVE SMOOTH",
"502 147 OFFCURVE",
"537 132 OFFCURVE",
"560 132 CURVE SMOOTH",
"579 132 OFFCURVE",
"620 201 OFFCURVE",
"620 221 CURVE SMOOTH",
"620 228 OFFCURVE",
"618 232 OFFCURVE",
"610 232 CURVE SMOOTH",
"597 232 OFFCURVE",
"574 228 OFFCURVE",
"555 228 CURVE SMOOTH",
"415 228 OFFCURVE",
"283 330 OFFCURVE",
"155 330 CURVE SMOOTH",
"118 330 OFFCURVE",
"56 244 OFFCURVE",
"56 210 CURVE SMOOTH"
);
}
);
width = 650;
}
);
unicode = FEA2;
},
{
color = 5;
glyphname = "hah-ar.medi";
layers = (
{
components = (
{
name = "hah-ar.init";
}
);
layerId = "98B9451C-6456-42E9-9BE3-FFE7D6D9360C";
paths = (
{
closed = 1;
nodes = (
"359 165 OFFCURVE",
"359 156 OFFCURVE",
"359 147 CURVE SMOOTH",
"359 125 OFFCURVE",
"380 100 OFFCURVE",
"560 100 CURVE",
"560 0 LINE",
"403 0 OFFCURVE",
"316 24 OFFCURVE",
"316 94 CURVE SMOOTH",
"316 142 OFFCURVE",
"334 165 OFFCURVE",
"351 165 CURVE SMOOTH"
);
}
);
width = 560;
}
);
unicode = FEA4;
},
{
color = 5;
glyphname = "hah-ar.init";
layers = (
{
layerId = "98B9451C-6456-42E9-9BE3-FFE7D6D9360C";
paths = (
{
closed = 1;
nodes = (
"0 100 LINE",
"121 100 OFFCURVE",
"228 154 OFFCURVE",
"228 171 CURVE SMOOTH",
"228 176 OFFCURVE",
"225 179 OFFCURVE",
"220 179 CURVE SMOOTH",
"194 179 OFFCURVE",
"95 199 OFFCURVE",
"70 199 CURVE SMOOTH",
"43 199 OFFCURVE",
"23 169 OFFCURVE",
"11 169 CURVE SMOOTH",
"5 169 OFFCURVE",
"0 172 OFFCURVE",
"0 181 CURVE SMOOTH",
"0 199 OFFCURVE",
"66 294 OFFCURVE",
"108 294 CURVE SMOOTH",
"153 294 OFFCURVE",
"370 233 OFFCURVE",
"484 233 CURVE SMOOTH",
"494 233 OFFCURVE",
"507 229 OFFCURVE",
"507 218 CURVE SMOOTH",
"507 204 OFFCURVE",
"476 132 OFFCURVE",
"450 132 CURVE SMOOTH",
"425 132 OFFCURVE",
"399 140 OFFCURVE",
"351 140 CURVE SMOOTH",
"263 140 OFFCURVE",
"133 0 OFFCURVE",
"0 0 CURVE"
);
}
);
width = 547;
},
{
associatedMasterId = "98B9451C-6456-42E9-9BE3-FFE7D6D9360C";
layerId = "0198DF01-22B9-40F5-93DA-E3A08636B5E3";
name = "Jul 19 20, 15:07";
paths = (
{
closed = 1;
nodes = (
"773 0 OFFCURVE",
"827 55 OFFCURVE",
"827 70 CURVE SMOOTH",
"827 86 OFFCURVE",
"773 140 OFFCURVE",
"757 140 CURVE SMOOTH",
"741 140 OFFCURVE",
"687 86 OFFCURVE",
"687 70 CURVE SMOOTH",
"687 55 OFFCURVE",
"741 0 OFFCURVE",
"757 0 CURVE SMOOTH"
);
},
{
closed = 1;
nodes = (
"773 140 OFFCURVE",
"827 195 OFFCURVE",
"827 210 CURVE SMOOTH",
"827 226 OFFCURVE",
"773 280 OFFCURVE",
"757 280 CURVE SMOOTH",
"741 280 OFFCURVE",
"687 226 OFFCURVE",
"687 210 CURVE SMOOTH",
"687 195 OFFCURVE",
"741 140 OFFCURVE",
"757 140 CURVE SMOOTH"
);
},
{
closed = 1;
nodes = (
"773 280 OFFCURVE",
"827 335 OFFCURVE",
"827 350 CURVE SMOOTH",
"827 366 OFFCURVE",
"773 420 OFFCURVE",
"757 420 CURVE SMOOTH",
"741 420 OFFCURVE",
"687 366 OFFCURVE",
"687 350 CURVE SMOOTH",
"687 335 OFFCURVE",
"741 280 OFFCURVE",
"757 280 CURVE SMOOTH"
);
},
{
closed = 1;
nodes = (
"773 420 OFFCURVE",
"827 475 OFFCURVE",
"827 490 CURVE SMOOTH",
"827 506 OFFCURVE",
"773 560 OFFCURVE",
"757 560 CURVE SMOOTH",
"741 560 OFFCURVE",
"687 506 OFFCURVE",
"687 490 CURVE SMOOTH",
"687 475 OFFCURVE",
"741 420 OFFCURVE",
"757 420 CURVE SMOOTH"
);
},
{
closed = 1;
nodes = (
"773 420 OFFCURVE",
"827 475 OFFCURVE",
"827 490 CURVE SMOOTH",
"827 506 OFFCURVE",
"773 560 OFFCURVE",
"757 560 CURVE SMOOTH",
"741 560 OFFCURVE",
"687 506 OFFCURVE",
"687 490 CURVE SMOOTH",
"687 475 OFFCURVE",
"741 420 OFFCURVE",
"757 420 CURVE SMOOTH"
);
},
{
closed = 1;
nodes = (
"773 560 OFFCURVE",
"827 615 OFFCURVE",
"827 630 CURVE SMOOTH",
"827 646 OFFCURVE",
"773 700 OFFCURVE",
"757 700 CURVE SMOOTH",
"741 700 OFFCURVE",
"687 646 OFFCURVE",
"687 630 CURVE SMOOTH",
"687 615 OFFCURVE",
"741 560 OFFCURVE",
"757 560 CURVE SMOOTH"
);
},
{
closed = 1;
nodes = (
"773 700 OFFCURVE",
"827 755 OFFCURVE",
"827 770 CURVE SMOOTH",
"827 786 OFFCURVE",
"773 840 OFFCURVE",
"757 840 CURVE SMOOTH",
"741 840 OFFCURVE",
"687 786 OFFCURVE",
"687 770 CURVE SMOOTH",
"687 755 OFFCURVE",
"741 700 OFFCURVE",
"757 700 CURVE SMOOTH"
);
},
{
closed = 1;
nodes = (
"773 -140 OFFCURVE",
"827 -85 OFFCURVE",
"827 -70 CURVE SMOOTH",
"827 -54 OFFCURVE",
"773 0 OFFCURVE",
"757 0 CURVE SMOOTH",
"741 0 OFFCURVE",
"687 -54 OFFCURVE",
"687 -70 CURVE SMOOTH",
"687 -85 OFFCURVE",
"741 -140 OFFCURVE",
"757 -140 CURVE SMOOTH"
);
},
{
closed = 1;
nodes = (
"773 -280 OFFCURVE",
"827 -225 OFFCURVE",
"827 -210 CURVE SMOOTH",
"827 -194 OFFCURVE",
"773 -140 OFFCURVE",
"757 -140 CURVE SMOOTH",
"741 -140 OFFCURVE",
"687 -194 OFFCURVE",
"687 -210 CURVE SMOOTH",
"687 -225 OFFCURVE",
"741 -280 OFFCURVE",
"757 -280 CURVE SMOOTH"
);
},
{
closed = 1;
nodes = (
"773 -420 OFFCURVE",
"827 -365 OFFCURVE",
"827 -350 CURVE SMOOTH",
"827 -334 OFFCURVE",
"773 -280 OFFCURVE",
"757 -280 CURVE SMOOTH",
"741 -280 OFFCURVE",
"687 -334 OFFCURVE",
"687 -350 CURVE SMOOTH",
"687 -365 OFFCURVE",
"741 -420 OFFCURVE",
"757 -420 CURVE SMOOTH"
);
},
{
closed = 1;
nodes = (
"773 840 OFFCURVE",
"827 895 OFFCURVE",
"827 910 CURVE SMOOTH",
"827 926 OFFCURVE",
"773 980 OFFCURVE",
"757 980 CURVE SMOOTH",
"741 980 OFFCURVE",
"687 926 OFFCURVE",
"687 910 CURVE SMOOTH",
"687 895 OFFCURVE",
"741 840 OFFCURVE",
"757 840 CURVE SMOOTH"
);
},
{
closed = 1;
nodes = (
"1103 783 OFFCURVE",
"1104 780 OFFCURVE",
"1108 776 CURVE SMOOTH",
"1113 772 OFFCURVE",
"1119 772 OFFCURVE",
"1125 777 CURVE SMOOTH",
"1150 798 OFFCURVE",
"1177 810 OFFCURVE",
"1207 812 CURVE SMOOTH",
"1255 815 OFFCURVE",
"1313 798 OFFCURVE",
"1381 759 CURVE",
"1272 702 OFFCURVE",
"1179 669 OFFCURVE",
"1102 663 CURVE SMOOTH",
"1032 657 OFFCURVE",
"961 658 OFFCURVE",
"890 665 CURVE SMOOTH",
"875 666 OFFCURVE",
"873 660 OFFCURVE",
"885 646 CURVE SMOOTH",
"903 625 OFFCURVE",
"936 606 OFFCURVE",
"981 590 CURVE SMOOTH",
"1002 583 OFFCURVE",
"1033 579 OFFCURVE",
"1072 580 CURVE SMOOTH",
"1131 581 OFFCURVE",
"1188 596 OFFCURVE",
"1245 622 CURVE SMOOTH",
"1327 660 OFFCURVE",
"1392 687 OFFCURVE",
"1442 704 CURVE SMOOTH",
"1512 727 OFFCURVE",
"1584 733 OFFCURVE",
"1656 720 CURVE SMOOTH",
"1667 718 OFFCURVE",
"1673 721 OFFCURVE",
"1677 729 CURVE SMOOTH",
"1705 790 LINE SMOOTH",
"1711 803 OFFCURVE",
"1707 809 OFFCURVE",
"1692 808 CURVE SMOOTH",
"1638 804 OFFCURVE",
"1585 807 OFFCURVE",
"1534 817 CURVE SMOOTH",
"1483 827 OFFCURVE",
"1440 838 OFFCURVE",
"1407 852 CURVE SMOOTH",
"1316 890 OFFCURVE",
"1257 909 OFFCURVE",
"1231 909 CURVE SMOOTH",
"1205 909 OFFCURVE",
"1179 894 OFFCURVE",
"1153 867 CURVE SMOOTH",
"1130 843 OFFCURVE",
"1114 817 OFFCURVE",
"1105 788 CURVE SMOOTH"
);
}
);
visible = 1;
width = 750;
}
);
unicode = FEA3;
},
{
color = 5;
glyphname = "dal-ar";
layers = (
{
layerId = "98B9451C-6456-42E9-9BE3-FFE7D6D9360C";
paths = (
{
closed = 1;
nodes = (
"80 0 OFFCURVE",
"60 9 OFFCURVE",
"60 90 CURVE SMOOTH",
"60 107 OFFCURVE",
"72 118 OFFCURVE",
"85 118 CURVE SMOOTH",
"103 118 OFFCURVE",
"109 100 OFFCURVE",
"140 100 CURVE SMOOTH",
"285 100 OFFCURVE",
"317 97 OFFCURVE",
"317 128 CURVE SMOOTH",
"317 164 OFFCURVE",
"145 306 OFFCURVE",
"145 346 CURVE SMOOTH",
"145 373 OFFCURVE",
"179 434 OFFCURVE",
"202 434 CURVE SMOOTH",
"235 434 OFFCURVE",
"387 234 OFFCURVE",
"387 156 CURVE SMOOTH",
"387 120 OFFCURVE",
"362 78 OFFCURVE",
"344 54 CURVE SMOOTH",
"311 10 OFFCURVE",
"203 0 OFFCURVE",
"114 0 CURVE SMOOTH"
);
}
);
width = 404;
}
);
unicode = 062F;
},
{
color = 5;
glyphname = "dal-ar.fina";
layers = (
{
layerId = "98B9451C-6456-42E9-9BE3-FFE7D6D9360C";
paths = (
{
closed = 1;
nodes = (
"428 100 OFFCURVE",
"369 303 OFFCURVE",
"369 420 CURVE SMOOTH",
"369 434 OFFCURVE",
"361 451 OFFCURVE",
"347 451 CURVE SMOOTH",
"329 451 OFFCURVE",
"280 368 OFFCURVE",
"280 346 CURVE SMOOTH",
"280 288 OFFCURVE",
"308 263 OFFCURVE",
"308 196 CURVE SMOOTH",
"308 105 OFFCURVE",
"137 105 OFFCURVE",
"91 105 CURVE SMOOTH",
"60 105 OFFCURVE",
"56 142 OFFCURVE",
"39 142 CURVE SMOOTH",
"23 142 OFFCURVE",
"20 127 OFFCURVE",
"20 114 CURVE SMOOTH",
"20 25 OFFCURVE",
"39 -12 OFFCURVE",
"71 -12 CURVE SMOOTH",
"346 -12 OFFCURVE",
"329 172 OFFCURVE",
"350 172 CURVE SMOOTH",
"361 172 OFFCURVE",
"397 0 OFFCURVE",
"533 0 CURVE",
"533 100 LINE"
);
}
);
width = 533;
}
);
unicode = FEAA;
},
{
color = 5;
glyphname = "reh-ar";
layers = (
{
layerId = "98B9451C-6456-42E9-9BE3-FFE7D6D9360C";
paths = (
{
closed = 1;
nodes = (
"133 -206 OFFCURVE",
"-30 -128 OFFCURVE",
"-30 -102 CURVE SMOOTH",
"-30 -85 OFFCURVE",
"-22 -77 OFFCURVE",
"-9 -77 CURVE SMOOTH",
"20 -77 OFFCURVE",
"118 -91 OFFCURVE",
"194 -91 CURVE SMOOTH",
"237 -91 OFFCURVE",
"304 62 OFFCURVE",
"304 111 CURVE SMOOTH",
"304 134 OFFCURVE",
"234 207 OFFCURVE",
"234 229 CURVE SMOOTH",
"234 251 OFFCURVE",
"277 335 OFFCURVE",
"292 335 CURVE SMOOTH",
"309 335 OFFCURVE",
"381 175 OFFCURVE",
"381 144 CURVE SMOOTH",
"381 69 OFFCURVE",
"314 -206 OFFCURVE",
"181 -206 CURVE SMOOTH"
);
}
);
width = 401;
},
{
associatedMasterId = "98B9451C-6456-42E9-9BE3-FFE7D6D9360C";
layerId = "62B91443-3231-45AB-8FC4-8288FE6AB998";
name = "Aug 18 20, 05:30";
paths = (
{
closed = 1;
nodes = (
"169 -206 OFFCURVE",
"0 -128 OFFCURVE",
"0 -102 CURVE SMOOTH",
"0 -83 OFFCURVE",
"9 -76 OFFCURVE",
"23 -76 CURVE SMOOTH",
"53 -76 OFFCURVE",
"137 -92 OFFCURVE",
"222 -92 CURVE SMOOTH",
"269 -92 OFFCURVE",
"364 66 OFFCURVE",
"364 111 CURVE SMOOTH",
"364 136 OFFCURVE",
"295 205 OFFCURVE",
"295 228 CURVE SMOOTH",
"295 253 OFFCURVE",
"335 335 OFFCURVE",
"352 335 CURVE SMOOTH",
"390 335 OFFCURVE",
"420 100 OFFCURVE",
"496 100 CURVE",
"496 0 LINE",
"470 0 OFFCURVE",
"440 26 OFFCURVE",
"420 26 CURVE SMOOTH",
"393 26 OFFCURVE",
"341 -206 OFFCURVE",
"207 -206 CURVE SMOOTH"
);
}
);
visible = 1;
width = 528;
}
);
unicode = 0631;
},
{
color = 5;
glyphname = "reh-ar.fina";
layers = (
{
layerId = "98B9451C-6456-42E9-9BE3-FFE7D6D9360C";
paths = (
{
closed = 1;
nodes = (
"139 -206 OFFCURVE",
"-30 -128 OFFCURVE",
"-30 -102 CURVE SMOOTH",
"-30 -83 OFFCURVE",
"-21 -76 OFFCURVE",
"-7 -76 CURVE SMOOTH",
"23 -76 OFFCURVE",
"107 -92 OFFCURVE",
"192 -92 CURVE SMOOTH",
"239 -92 OFFCURVE",
"304 66 OFFCURVE",
"304 111 CURVE SMOOTH",
"304 136 OFFCURVE",
"235 205 OFFCURVE",
"235 228 CURVE SMOOTH",
"235 253 OFFCURVE",
"275 335 OFFCURVE",
"292 335 CURVE SMOOTH",
"330 335 OFFCURVE",
"360 100 OFFCURVE",
"436 100 CURVE",
"436 0 LINE",
"410 0 OFFCURVE",
"380 26 OFFCURVE",
"360 26 CURVE SMOOTH",
"333 26 OFFCURVE",
"311 -206 OFFCURVE",
"177 -206 CURVE SMOOTH"
);
}
);
width = 436;
}
);
unicode = FEAE;
},
{
color = 5;
glyphname = "seen-ar";
layers = (
{
layerId = "98B9451C-6456-42E9-9BE3-FFE7D6D9360C";
paths = (
{
closed = 1;
nodes = (
"28 -350 OFFCURVE",
"0 -214 OFFCURVE",
"0 -136 CURVE SMOOTH",
"0 -67 OFFCURVE",
"67 84 OFFCURVE",
"80 84 CURVE SMOOTH",
"88 84 OFFCURVE",
"94 71 OFFCURVE",
"94 64 CURVE SMOOTH",
"94 45 OFFCURVE",
"75 -19 OFFCURVE",
"75 -54 CURVE SMOOTH",
"75 -176 OFFCURVE",
"165 -230 OFFCURVE",
"366 -230 CURVE SMOOTH",
"483 -230 OFFCURVE",
"616 -173 OFFCURVE",
"616 -124 CURVE SMOOTH",
"616 -35 OFFCURVE",
"547 118 OFFCURVE",
"547 148 CURVE SMOOTH",
"547 168 OFFCURVE",
"598 240 OFFCURVE",
"626 240 CURVE SMOOTH",
"636 240 OFFCURVE",
"649 157 OFFCURVE",
"656 138 CURVE SMOOTH",
"668 106 OFFCURVE",
"705 96 OFFCURVE",
"752 96 CURVE SMOOTH",
"831 96 OFFCURVE",
"889 211 OFFCURVE",
"915 211 CURVE SMOOTH",
"926 211 OFFCURVE",
"930 201 OFFCURVE",
"930 190 CURVE SMOOTH",
"930 171 OFFCURVE",
"925 155 OFFCURVE",
"925 141 CURVE SMOOTH",
"925 116 OFFCURVE",
"961 100 OFFCURVE",
"982 100 CURVE SMOOTH",
"1003 100 OFFCURVE",
"1049 113 OFFCURVE",
"1049 132 CURVE SMOOTH",
"1049 172 OFFCURVE",
"1008 204 OFFCURVE",
"1008 234 CURVE SMOOTH",
"1008 260 OFFCURVE",
"1056 350 OFFCURVE",
"1071 350 CURVE SMOOTH",
"1091 350 OFFCURVE",
"1137 234 OFFCURVE",
"1137 195 CURVE SMOOTH",
"1137 108 OFFCURVE",
"1030 0 OFFCURVE",
"973 0 CURVE SMOOTH",
"915 0 OFFCURVE",
"908 58 OFFCURVE",
"887 58 CURVE SMOOTH",
"871 58 OFFCURVE",
"853 0 OFFCURVE",
"698 0 CURVE SMOOTH",
"687 0 OFFCURVE",
"683 -10 OFFCURVE",
"683 -19 CURVE SMOOTH",
"683 -159 OFFCURVE",
"609 -350 OFFCURVE",
"312 -350 CURVE SMOOTH"
);
}
);
width = 1170;
},
{
associatedMasterId = "98B9451C-6456-42E9-9BE3-FFE7D6D9360C";
layerId = "40B96F89-A1D1-4909-9847-4695E504B4E2";
name = "Aug 26 20, 06:35";
paths = (
{
closed = 1;
nodes = (
"783 0 CURVE SMOOTH",
"707 0 OFFCURVE",
"697 72 OFFCURVE",
"680 72 CURVE SMOOTH",
"661 72 OFFCURVE",
"624 0 OFFCURVE",
"530 0 CURVE",
"530 100 LINE",
"651 100 OFFCURVE",
"706 211 OFFCURVE",
"728 211 CURVE SMOOTH",
"741 211 OFFCURVE",
"745 202 OFFCURVE",
"745 191 CURVE SMOOTH",
"745 181 OFFCURVE",
"740 171 OFFCURVE",
"740 160 CURVE SMOOTH",
"740 126 OFFCURVE",
"777 100 OFFCURVE",
"798 100 CURVE SMOOTH",
"883 100 OFFCURVE",
"902 211 OFFCURVE",
"933 211 CURVE SMOOTH",
"943 211 OFFCURVE",
"950 205 OFFCURVE",
"950 195 CURVE SMOOTH",
"950 178 OFFCURVE",
"945 159 OFFCURVE",
"945 148 CURVE SMOOTH",
"945 112 OFFCURVE",
"963 102 OFFCURVE",
"976 102 CURVE SMOOTH",
"989 102 OFFCURVE",
"1050 109 OFFCURVE",
"1050 132 CURVE SMOOTH",
"1050 164 OFFCURVE",
"1008 209 OFFCURVE",
"1008 233 CURVE SMOOTH",
"1008 260 OFFCURVE",
"1056 350 OFFCURVE",
"1071 350 CURVE SMOOTH",
"1088 350 OFFCURVE",
"1137 235 OFFCURVE",
"1137 202 CURVE SMOOTH",
"1137 87 OFFCURVE",
"1030 0 OFFCURVE",
"953 0 CURVE SMOOTH",
"896 0 OFFCURVE",
"902 68 OFFCURVE",
"890 68 CURVE SMOOTH",
"871 68 OFFCURVE",
"858 0 OFFCURVE"
);
}
);
visible = 1;
width = 1170;
}
);
unicode = 0633;
},
{
color = 5;
glyphname = "seen-ar.fina";
layers = (
{
layerId = "98B9451C-6456-42E9-9BE3-FFE7D6D9360C";
paths = (
{
closed = 1;
nodes = (
"28 -350 OFFCURVE",
"0 -214 OFFCURVE",
"0 -136 CURVE SMOOTH",
"0 -67 OFFCURVE",
"67 84 OFFCURVE",
"80 84 CURVE SMOOTH",
"88 84 OFFCURVE",
"94 71 OFFCURVE",
"94 64 CURVE SMOOTH",
"94 45 OFFCURVE",
"75 -19 OFFCURVE",
"75 -54 CURVE SMOOTH",
"75 -176 OFFCURVE",
"165 -230 OFFCURVE",
"366 -230 CURVE SMOOTH",
"483 -230 OFFCURVE",
"612 -173 OFFCURVE",
"612 -124 CURVE SMOOTH",
"612 -35 OFFCURVE",
"545 118 OFFCURVE",
"545 148 CURVE SMOOTH",
"545 168 OFFCURVE",
"593 240 OFFCURVE",
"621 240 CURVE SMOOTH",
"633 240 OFFCURVE",
"642 197 OFFCURVE",
"654 144 CURVE SMOOTH",
"663 104 OFFCURVE",
"705 96 OFFCURVE",
"744 96 CURVE SMOOTH",
"786 96 OFFCURVE",
"838 100 OFFCURVE",
"876 142 CURVE SMOOTH",
"898 166 OFFCURVE",
"918 211 OFFCURVE",
"934 211 CURVE SMOOTH",
"947 211 OFFCURVE",
"953 204 OFFCURVE",
"953 194 CURVE SMOOTH",
"953 176 OFFCURVE",
"946 168 OFFCURVE",
"946 154 CURVE SMOOTH",
"946 138 OFFCURVE",
"958 114 OFFCURVE",
"975 114 CURVE SMOOTH",
"1033 114 OFFCURVE",
"1095 252 OFFCURVE",
"1130 252 CURVE SMOOTH",
"1145 252 OFFCURVE",
"1145 241 OFFCURVE",
"1145 233 CURVE SMOOTH",
"1145 223 OFFCURVE",
"1140 206 OFFCURVE",
"1140 192 CURVE SMOOTH",
"1140 165 OFFCURVE",
"1184 100 OFFCURVE",
"1247 100 CURVE",
"1247 0 LINE",
"1116 2 OFFCURVE",
"1123 97 OFFCURVE",
"1092 97 CURVE SMOOTH",
"1077 97 OFFCURVE",
"1022 0 OFFCURVE",
"943 0 CURVE SMOOTH",
"892 0 OFFCURVE",
"872 56 OFFCURVE",
"857 56 CURVE SMOOTH",
"841 56 OFFCURVE",
"827 0 OFFCURVE",
"694 0 CURVE SMOOTH",
"683 0 OFFCURVE",
"679 -10 OFFCURVE",
"679 -19 CURVE SMOOTH",
"679 -159 OFFCURVE",
"609 -350 OFFCURVE",
"312 -350 CURVE SMOOTH"
);
}
);
width = 1247;
}
);
unicode = FEB2;
},
{
color = 5;
glyphname = "seen-ar.medi";
layers = (
{
anchors = (
{
name = bottom;
position = "{337, -58}";
},
{
name = top;
position = "{378, 257}";
}
);
layerId = "98B9451C-6456-42E9-9BE3-FFE7D6D9360C";
paths = (
{
closed = 1;
nodes = (
"253 0 CURVE SMOOTH",
"177 0 OFFCURVE",
"167 72 OFFCURVE",
"150 72 CURVE SMOOTH",
"131 72 OFFCURVE",
"94 0 OFFCURVE",
"0 0 CURVE",
"0 100 LINE",
"121 100 OFFCURVE",
"176 211 OFFCURVE",
"198 211 CURVE SMOOTH",
"211 211 OFFCURVE",
"215 202 OFFCURVE",
"215 191 CURVE SMOOTH",
"215 181 OFFCURVE",
"210 171 OFFCURVE",
"210 160 CURVE SMOOTH",
"210 126 OFFCURVE",
"247 100 OFFCURVE",
"268 100 CURVE SMOOTH",
"353 100 OFFCURVE",
"372 211 OFFCURVE",
"403 211 CURVE SMOOTH",
"413 211 OFFCURVE",
"420 205 OFFCURVE",
"420 195 CURVE SMOOTH",
"420 178 OFFCURVE",
"415 169 OFFCURVE",
"415 158 CURVE SMOOTH",
"415 122 OFFCURVE",
"433 114 OFFCURVE",
"446 114 CURVE SMOOTH",
"497 114 OFFCURVE",
"539 241 OFFCURVE",
"567 241 CURVE SMOOTH",
"576 241 OFFCURVE",
"582 233 OFFCURVE",
"582 223 CURVE SMOOTH",
"582 215 OFFCURVE",
"577 200 OFFCURVE",
"577 185 CURVE SMOOTH",
"577 145 OFFCURVE",
"630 100 OFFCURVE",
"687 100 CURVE",
"687 0 LINE",
"560 0 OFFCURVE",
"545 100 OFFCURVE",
"528 100 CURVE SMOOTH",
"506 100 OFFCURVE",
"488 0 OFFCURVE",
"430 0 CURVE SMOOTH",
"369 0 OFFCURVE",
"372 68 OFFCURVE",
"360 68 CURVE SMOOTH",
"341 68 OFFCURVE",
"328 0 OFFCURVE"
);
}
);
width = 687;
}
);
unicode = FEB4;
},
{
color = 5;
glyphname = "seen-ar.init";
layers = (
{
layerId = "98B9451C-6456-42E9-9BE3-FFE7D6D9360C";
paths = (
{
closed = 1;
nodes = (
"253 0 CURVE SMOOTH",
"177 0 OFFCURVE",
"167 72 OFFCURVE",
"150 72 CURVE SMOOTH",
"131 72 OFFCURVE",
"94 0 OFFCURVE",
"0 0 CURVE",
"0 100 LINE",
"121 100 OFFCURVE",
"176 211 OFFCURVE",
"198 211 CURVE SMOOTH",
"211 211 OFFCURVE",
"215 202 OFFCURVE",
"215 191 CURVE SMOOTH",
"215 181 OFFCURVE",
"210 171 OFFCURVE",
"210 160 CURVE SMOOTH",
"210 126 OFFCURVE",
"247 100 OFFCURVE",
"268 100 CURVE SMOOTH",
"353 100 OFFCURVE",
"372 211 OFFCURVE",
"403 211 CURVE SMOOTH",
"413 211 OFFCURVE",
"420 205 OFFCURVE",
"420 195 CURVE SMOOTH",
"420 178 OFFCURVE",
"415 159 OFFCURVE",
"415 148 CURVE SMOOTH",
"415 112 OFFCURVE",
"433 102 OFFCURVE",
"446 102 CURVE SMOOTH",
"459 102 OFFCURVE",
"520 109 OFFCURVE",
"520 132 CURVE SMOOTH",
"520 164 OFFCURVE",
"478 209 OFFCURVE",
"478 233 CURVE SMOOTH",
"478 260 OFFCURVE",
"526 350 OFFCURVE",
"541 350 CURVE SMOOTH",
"558 350 OFFCURVE",
"607 235 OFFCURVE",
"607 202 CURVE SMOOTH",
"607 87 OFFCURVE",
"500 0 OFFCURVE",
"423 0 CURVE SMOOTH",
"366 0 OFFCURVE",
"372 68 OFFCURVE",
"360 68 CURVE SMOOTH",
"341 68 OFFCURVE",
"328 0 OFFCURVE"
);
}
);
width = 607;
}
);
unicode = FEB3;
},
{
color = 5;
glyphname = "sad-ar";
layers = (
{
backgroundImage = {
crop = "{{0, 0}, {171, 157}}";
imagePath = "../../../../Desktop/Screen Shot 2020-08-19 at 3.22.09 AM.png";
locked = "1";
transform = "{13, 0, 0, 13, -74, -902}";
};
layerId = "98B9451C-6456-42E9-9BE3-FFE7D6D9360C";
paths = (
{
closed = 1;
nodes = (
"138 -350 OFFCURVE",
"110 -214 OFFCURVE",
"110 -136 CURVE SMOOTH",
"110 -67 OFFCURVE",
"177 84 OFFCURVE",
"190 84 CURVE SMOOTH",
"198 84 OFFCURVE",
"204 71 OFFCURVE",
"204 64 CURVE SMOOTH",
"204 45 OFFCURVE",
"185 -19 OFFCURVE",
"185 -54 CURVE SMOOTH",
"185 -176 OFFCURVE",
"275 -230 OFFCURVE",
"366 -230 CURVE SMOOTH",
"483 -230 OFFCURVE",
"616 -173 OFFCURVE",
"616 -124 CURVE SMOOTH",
"616 -35 OFFCURVE",
"517 132 OFFCURVE",
"517 162 CURVE SMOOTH",
"517 182 OFFCURVE",
"558 254 OFFCURVE",
"586 254 CURVE SMOOTH",
"607 254 OFFCURVE",
"634 100 OFFCURVE",
"668 100 CURVE SMOOTH",
"728 100 OFFCURVE",
"895 319 OFFCURVE",
"1055 319 CURVE SMOOTH",
"1131 319 OFFCURVE",
"1192 247 OFFCURVE",
"1192 204 CURVE SMOOTH",
"1192 79 OFFCURVE",
"1048 0 OFFCURVE",
"688 0 CURVE",
"677 -2 OFFCURVE",
"673 -10 OFFCURVE",
"673 -19 CURVE SMOOTH",
"673 -159 OFFCURVE",
"609 -350 OFFCURVE",
"312 -350 CURVE SMOOTH"
);
},
{
closed = 1;
nodes = (
"946 99 OFFCURVE",
"1112 128 OFFCURVE",
"1112 169 CURVE SMOOTH",
"1112 189 OFFCURVE",
"1022 218 OFFCURVE",
"989 218 CURVE SMOOTH",
"928 218 OFFCURVE",
"780 141 OFFCURVE",
"780 114 CURVE SMOOTH",
"780 103 OFFCURVE",
"789 99 OFFCURVE",
"800 99 CURVE SMOOTH"
);
}
);
width = 1140;
}
);
unicode = 0635;
},
{
color = 5;
glyphname = "sad-ar.fina";
layers = (
{
layerId = "98B9451C-6456-42E9-9BE3-FFE7D6D9360C";
paths = (
{
closed = 1;
nodes = (
"28 -350 OFFCURVE",
"0 -214 OFFCURVE",
"0 -136 CURVE SMOOTH",
"0 -67 OFFCURVE",
"67 84 OFFCURVE",
"80 84 CURVE SMOOTH",
"88 84 OFFCURVE",
"94 71 OFFCURVE",
"94 64 CURVE SMOOTH",
"94 45 OFFCURVE",
"75 -19 OFFCURVE",
"75 -54 CURVE SMOOTH",
"75 -176 OFFCURVE",
"165 -230 OFFCURVE",
"256 -230 CURVE SMOOTH",
"373 -230 OFFCURVE",
"506 -173 OFFCURVE",
"506 -124 CURVE SMOOTH",
"506 -35 OFFCURVE",
"407 132 OFFCURVE",
"407 162 CURVE SMOOTH",
"407 182 OFFCURVE",
"448 254 OFFCURVE",
"476 254 CURVE SMOOTH",
"497 254 OFFCURVE",
"524 100 OFFCURVE",
"558 100 CURVE SMOOTH",
"618 100 OFFCURVE",
"785 319 OFFCURVE",
"945 319 CURVE SMOOTH",
"1021 319 OFFCURVE",
"1071 249 OFFCURVE",
"1082 204 CURVE SMOOTH",
"1098 138 OFFCURVE",
"1092 100 OFFCURVE",
"1122 100 CURVE",
"1122 0 LINE",
"578 0 LINE SMOOTH",
"567 0 OFFCURVE",
"563 -10 OFFCURVE",
"563 -19 CURVE SMOOTH",
"563 -159 OFFCURVE",
"499 -350 OFFCURVE",
"202 -350 CURVE SMOOTH"
);
},
{
closed = 1;
nodes = (
"836 99 OFFCURVE",
"1002 98 OFFCURVE",
"1002 169 CURVE SMOOTH",
"1002 189 OFFCURVE",
"985 218 OFFCURVE",
"879 218 CURVE SMOOTH",
"818 218 OFFCURVE",
"670 141 OFFCURVE",
"670 114 CURVE SMOOTH",
"670 103 OFFCURVE",
"679 99 OFFCURVE",
"690 99 CURVE SMOOTH"
);
}
);
width = 1082;
}
);
unicode = FEBA;
},
{
color = 5;
glyphname = "sad-ar.medi";
layers = (
{
layerId = "98B9451C-6456-42E9-9BE3-FFE7D6D9360C";
paths = (
{
closed = 1;
nodes = (
"0 100 LINE",
"60 100 OFFCURVE",
"227 319 OFFCURVE",
"387 319 CURVE SMOOTH",
"463 319 OFFCURVE",
"535 250 OFFCURVE",
"535 125 CURVE SMOOTH",
"535 109 OFFCURVE",
"547 100 OFFCURVE",
"594 100 CURVE",
"594 0 LINE",
"0 0 LINE"
);
},
{
closed = 1;
nodes = (
"278 99 OFFCURVE",
"444 87 OFFCURVE",
"444 128 CURVE SMOOTH",
"444 148 OFFCURVE",
"414 218 OFFCURVE",
"321 218 CURVE SMOOTH",
"260 218 OFFCURVE",
"112 141 OFFCURVE",
"112 114 CURVE SMOOTH",
"112 103 OFFCURVE",
"121 99 OFFCURVE",
"132 99 CURVE SMOOTH"
);
}
);
width = 594;
}
);
unicode = FEBC;
},
{
color = 5;
glyphname = "sad-ar.init";
layers = (
{
layerId = "98B9451C-6456-42E9-9BE3-FFE7D6D9360C";
paths = (
{
closed = 1;
nodes = (
"0 100 LINE",
"60 100 OFFCURVE",
"227 319 OFFCURVE",
"387 319 CURVE SMOOTH",
"463 319 OFFCURVE",
"524 247 OFFCURVE",
"524 204 CURVE SMOOTH",
"524 79 OFFCURVE",
"360 0 OFFCURVE",
"0 0 CURVE"
);
},
{
closed = 1;
nodes = (
"278 99 OFFCURVE",
"444 128 OFFCURVE",
"444 169 CURVE SMOOTH",
"444 189 OFFCURVE",
"354 218 OFFCURVE",
"321 218 CURVE SMOOTH",
"260 218 OFFCURVE",
"112 141 OFFCURVE",
"112 114 CURVE SMOOTH",
"112 103 OFFCURVE",
"121 99 OFFCURVE",
"132 99 CURVE SMOOTH"
);
}
);
width = 524;
}
);
unicode = FEBB;
},
{
color = 5;
glyphname = "tah-ar";
layers = (
{
layerId = "98B9451C-6456-42E9-9BE3-FFE7D6D9360C";
paths = (
{
closed = 1;
nodes = (
"0 106 OFFCURVE",
"6 118 OFFCURVE",
"23 118 CURVE SMOOTH",
"58 118 OFFCURVE",
"120 100 OFFCURVE",
"252 100 CURVE SMOOTH",
"294 100 OFFCURVE",
"313 109 OFFCURVE",
"313 154 CURVE SMOOTH",
"313 307 OFFCURVE",
"280 458 OFFCURVE",
"264 556 CURVE SMOOTH",
"259 587 OFFCURVE",
"243 600 OFFCURVE",
"243 630 CURVE SMOOTH",
"243 652 OFFCURVE",
"274 700 OFFCURVE",
"291 700 CURVE SMOOTH",
"307 700 OFFCURVE",
"311 667 OFFCURVE",
"328 645 CURVE SMOOTH",
"344 623 OFFCURVE",
"365 609 OFFCURVE",
"365 599 CURVE SMOOTH",
"365 584 OFFCURVE",
"347 556 OFFCURVE",
"347 542 CURVE SMOOTH",
"347 526 OFFCURVE",
"382 259 OFFCURVE",
"382 222 CURVE SMOOTH",
"382 204 OFFCURVE",
"383 150 OFFCURVE",
"388 150 CURVE SMOOTH",
"400 150 OFFCURVE",
"519 319 OFFCURVE",
"679 319 CURVE SMOOTH",
"755 319 OFFCURVE",
"816 247 OFFCURVE",
"816 204 CURVE SMOOTH",
"816 79 OFFCURVE",
"672 0 OFFCURVE",
"432 0 CURVE SMOOTH",
"182 0 LINE SMOOTH",
"156 0 OFFCURVE",
"0 74 OFFCURVE",
"0 92 CURVE SMOOTH"
);
},
{
closed = 1;
nodes = (
"404 103 OFFCURVE",
"413 99 OFFCURVE",
"424 99 CURVE SMOOTH",
"570 99 OFFCURVE",
"736 128 OFFCURVE",
"736 169 CURVE SMOOTH",
"736 189 OFFCURVE",
"646 218 OFFCURVE",
"613 218 CURVE SMOOTH",
"552 218 OFFCURVE",
"404 141 OFFCURVE",
"404 114 CURVE SMOOTH"
);
}
);
width = 816;
}
);
unicode = 0637;
},
{
color = 5;
glyphname = "tah-ar.fina";
layers = (
{
layerId = "98B9451C-6456-42E9-9BE3-FFE7D6D9360C";
paths = (
{
closed = 1;
nodes = (
"125 0 OFFCURVE",
"0 82 OFFCURVE",
"0 105 CURVE SMOOTH",
"0 126 OFFCURVE",
"6 133 OFFCURVE",
"33 133 CURVE SMOOTH",
"69 133 OFFCURVE",
"149 100 OFFCURVE",
"270 100 CURVE SMOOTH",
"292 100 OFFCURVE",
"301 109 OFFCURVE",
"301 154 CURVE SMOOTH",
"301 307 OFFCURVE",
"268 458 OFFCURVE",
"252 556 CURVE SMOOTH",
"247 587 OFFCURVE",
"231 600 OFFCURVE",
"231 630 CURVE SMOOTH",
"231 652 OFFCURVE",
"262 700 OFFCURVE",
"279 700 CURVE SMOOTH",
"295 700 OFFCURVE",
"299 667 OFFCURVE",
"316 645 CURVE SMOOTH",
"332 623 OFFCURVE",
"353 609 OFFCURVE",
"353 599 CURVE SMOOTH",
"353 584 OFFCURVE",
"335 556 OFFCURVE",
"335 542 CURVE SMOOTH",
"335 526 OFFCURVE",
"370 259 OFFCURVE",
"370 222 CURVE SMOOTH",
"370 204 OFFCURVE",
"371 150 OFFCURVE",
"376 150 CURVE SMOOTH",
"388 150 OFFCURVE",
"507 319 OFFCURVE",
"667 319 CURVE SMOOTH",
"743 319 OFFCURVE",
"804 247 OFFCURVE",
"804 204 CURVE SMOOTH",
"804 119 OFFCURVE",
"811 100 OFFCURVE",
"836 100 CURVE",
"836 0 LINE",
"221 0 LINE SMOOTH"
);
},
{
closed = 1;
nodes = (
"392 103 OFFCURVE",
"401 99 OFFCURVE",
"412 99 CURVE SMOOTH",
"558 99 OFFCURVE",
"724 128 OFFCURVE",
"724 169 CURVE SMOOTH",
"724 189 OFFCURVE",
"634 218 OFFCURVE",
"601 218 CURVE SMOOTH",
"540 218 OFFCURVE",
"392 141 OFFCURVE",
"392 114 CURVE SMOOTH"
);
}
);
width = 836;
},
{
associatedMasterId = "98B9451C-6456-42E9-9BE3-FFE7D6D9360C";
layerId = "04A450B7-57DF-4BCE-80FE-CA261F3D88BA";
name = "Aug 19 20, 05:55";
paths = (
{
closed = 1;
nodes = (
"-304 106 OFFCURVE",
"-298 118 OFFCURVE",
"-281 118 CURVE SMOOTH",
"-246 118 OFFCURVE",
"-184 100 OFFCURVE",
"18 100 CURVE SMOOTH",
"60 100 OFFCURVE",
"79 109 OFFCURVE",
"79 154 CURVE SMOOTH",
"79 307 OFFCURVE",
"46 458 OFFCURVE",
"30 556 CURVE SMOOTH",
"25 587 OFFCURVE",
"9 600 OFFCURVE",
"9 630 CURVE SMOOTH",
"9 652 OFFCURVE",
"40 700 OFFCURVE",
"57 700 CURVE SMOOTH",
"73 700 OFFCURVE",
"77 667 OFFCURVE",
"94 645 CURVE SMOOTH",
"110 623 OFFCURVE",
"131 609 OFFCURVE",
"131 599 CURVE SMOOTH",
"131 584 OFFCURVE",
"113 556 OFFCURVE",
"113 542 CURVE SMOOTH",
"113 526 OFFCURVE",
"148 259 OFFCURVE",
"148 222 CURVE SMOOTH",
"148 204 OFFCURVE",
"149 150 OFFCURVE",
"154 150 CURVE SMOOTH",
"166 150 OFFCURVE",
"285 319 OFFCURVE",
"445 319 CURVE SMOOTH",
"521 319 OFFCURVE",
"582 247 OFFCURVE",
"582 204 CURVE SMOOTH",
"582 79 OFFCURVE",
"438 0 OFFCURVE",
"198 0 CURVE SMOOTH",
"-122 0 LINE SMOOTH",
"-148 0 OFFCURVE",
"-304 74 OFFCURVE",
"-304 92 CURVE SMOOTH"
);
},
{
closed = 1;
nodes = (
"170 103 OFFCURVE",
"179 99 OFFCURVE",
"190 99 CURVE SMOOTH",
"336 99 OFFCURVE",
"502 128 OFFCURVE",
"502 169 CURVE SMOOTH",
"502 189 OFFCURVE",
"412 218 OFFCURVE",
"379 218 CURVE SMOOTH",
"318 218 OFFCURVE",
"170 141 OFFCURVE",
"170 114 CURVE SMOOTH"
);
}
);
visible = 1;
width = 600;
}
);
unicode = FEC2;
},
{
color = 5;
glyphname = "tah-ar.medi";
layers = (
{
layerId = "98B9451C-6456-42E9-9BE3-FFE7D6D9360C";
paths = (
{
closed = 1;
nodes = (
"0 101 LINE",
"39 100 LINE",
"61 100 OFFCURVE",
"70 109 OFFCURVE",
"70 154 CURVE SMOOTH",
"70 307 OFFCURVE",
"37 458 OFFCURVE",
"21 556 CURVE SMOOTH",
"16 587 OFFCURVE",
"0 600 OFFCURVE",
"0 630 CURVE SMOOTH",
"0 652 OFFCURVE",
"31 700 OFFCURVE",
"48 700 CURVE SMOOTH",
"64 700 OFFCURVE",
"68 667 OFFCURVE",
"85 645 CURVE SMOOTH",
"101 623 OFFCURVE",
"122 609 OFFCURVE",
"122 599 CURVE SMOOTH",
"122 584 OFFCURVE",
"104 556 OFFCURVE",
"104 542 CURVE SMOOTH",
"104 526 OFFCURVE",
"139 259 OFFCURVE",
"139 222 CURVE SMOOTH",
"139 204 OFFCURVE",
"140 150 OFFCURVE",
"145 150 CURVE SMOOTH",
"157 150 OFFCURVE",
"276 319 OFFCURVE",
"436 319 CURVE SMOOTH",
"512 319 OFFCURVE",
"573 247 OFFCURVE",
"573 204 CURVE SMOOTH",
"573 119 OFFCURVE",
"580 100 OFFCURVE",
"605 100 CURVE",
"605 0 LINE",
"0 0 LINE"
);
},
{
closed = 1;
nodes = (
"161 103 OFFCURVE",
"170 99 OFFCURVE",
"181 99 CURVE SMOOTH",
"327 99 OFFCURVE",
"493 128 OFFCURVE",
"493 169 CURVE SMOOTH",
"493 189 OFFCURVE",
"403 218 OFFCURVE",
"370 218 CURVE SMOOTH",
"309 218 OFFCURVE",
"161 141 OFFCURVE",
"161 114 CURVE SMOOTH"
);
}
);
width = 600;
}
);
unicode = FEC4;
},
{
color = 5;
glyphname = "tah-ar.init";
layers = (
{
layerId = "98B9451C-6456-42E9-9BE3-FFE7D6D9360C";
paths = (
{
closed = 1;
nodes = (
"0 101 LINE",
"39 100 LINE",
"61 100 OFFCURVE",
"70 109 OFFCURVE",
"70 154 CURVE SMOOTH",
"70 307 OFFCURVE",
"37 458 OFFCURVE",
"21 556 CURVE SMOOTH",
"16 587 OFFCURVE",
"0 600 OFFCURVE",
"0 630 CURVE SMOOTH",
"0 652 OFFCURVE",
"31 700 OFFCURVE",
"48 700 CURVE SMOOTH",
"64 700 OFFCURVE",
"68 667 OFFCURVE",
"85 645 CURVE SMOOTH",
"101 623 OFFCURVE",
"122 609 OFFCURVE",
"122 599 CURVE SMOOTH",
"122 584 OFFCURVE",
"104 556 OFFCURVE",
"104 542 CURVE SMOOTH",
"104 526 OFFCURVE",
"139 259 OFFCURVE",
"139 222 CURVE SMOOTH",
"139 204 OFFCURVE",
"140 150 OFFCURVE",
"145 150 CURVE SMOOTH",
"157 150 OFFCURVE",
"276 319 OFFCURVE",
"436 319 CURVE SMOOTH",
"512 319 OFFCURVE",
"573 247 OFFCURVE",
"573 204 CURVE SMOOTH",
"573 119 OFFCURVE",
"580 100 OFFCURVE",
"605 100 CURVE",
"605 0 LINE",
"0 0 LINE"
);
},
{
closed = 1;
nodes = (
"161 103 OFFCURVE",
"170 99 OFFCURVE",
"181 99 CURVE SMOOTH",
"327 99 OFFCURVE",
"493 128 OFFCURVE",
"493 169 CURVE SMOOTH",
"493 189 OFFCURVE",
"403 218 OFFCURVE",
"370 218 CURVE SMOOTH",
"309 218 OFFCURVE",
"161 141 OFFCURVE",
"161 114 CURVE SMOOTH"
);
}
);
width = 605;
}
);
unicode = FEC3;
},
{
color = 5;
glyphname = "ain-ar";
layers = (
{
layerId = "98B9451C-6456-42E9-9BE3-FFE7D6D9360C";
paths = (
{
closed = 1;
nodes = (
"293 343 OFFCURVE",
"230 361 OFFCURVE",
"193 361 CURVE SMOOTH",
"154 361 OFFCURVE",
"118 331 OFFCURVE",
"118 305 CURVE SMOOTH",
"118 269 OFFCURVE",
"190 194 OFFCURVE",
"249 194 CURVE SMOOTH",
"288 194 OFFCURVE",
"375 253 OFFCURVE",
"393 253 CURVE SMOOTH",
"402 253 OFFCURVE",
"409 249 OFFCURVE",
"409 234 CURVE SMOOTH",
"409 221 OFFCURVE",
"376 163 OFFCURVE",
"365 150 CURVE SMOOTH",
"355 138 OFFCURVE",
"8 27 OFFCURVE",
"8 -141 CURVE SMOOTH",
"8 -280 OFFCURVE",
"82 -338 OFFCURVE",
"205 -338 CURVE SMOOTH",
"397 -338 OFFCURVE",
"470 -319 OFFCURVE",
"500 -319 CURVE SMOOTH",
"513 -319 OFFCURVE",
"523 -326 OFFCURVE",
"523 -339 CURVE SMOOTH",
"523 -381 OFFCURVE",
"323 -478 OFFCURVE",
"207 -478 CURVE SMOOTH",
"81 -478 OFFCURVE",
"-50 -353 OFFCURVE",
"-50 -183 CURVE SMOOTH",
"-50 14 OFFCURVE",
"107 95 OFFCURVE",
"107 129 CURVE SMOOTH",
"107 159 OFFCURVE",
"35 182 OFFCURVE",
"35 242 CURVE SMOOTH",
"35 325 OFFCURVE",
"143 438 OFFCURVE",
"185 438 CURVE SMOOTH",
"236 438 OFFCURVE",
"324 379 OFFCURVE",
"324 361 CURVE SMOOTH",
"324 353 OFFCURVE",
"318 343 OFFCURVE",
"310 343 CURVE SMOOTH"
);
}
);
width = 523;
},
{
associatedMasterId = "98B9451C-6456-42E9-9BE3-FFE7D6D9360C";
layerId = "40B5A30A-DC5F-46E5-9A34-4D7F96C0B304";
name = "Aug 19 20, 05:59";
paths = (
{
closed = 1;
nodes = (
"387 273 OFFCURVE",
"286 194 OFFCURVE",
"236 194 CURVE SMOOTH",
"173 194 OFFCURVE",
"107 283 OFFCURVE",
"107 305 CURVE SMOOTH",
"107 322 OFFCURVE",
"131 361 OFFCURVE",
"188 361 CURVE SMOOTH",
"221 361 OFFCURVE",
"281 344 OFFCURVE",
"297 344 CURVE SMOOTH",
"307 344 OFFCURVE",
"314 350 OFFCURVE",
"314 361 CURVE SMOOTH",
"314 381 OFFCURVE",
"211 438 OFFCURVE",
"179 438 CURVE SMOOTH",
"107 438 OFFCURVE",
"25 288 OFFCURVE",
"25 241 CURVE SMOOTH",
"25 191 OFFCURVE",
"98 147 OFFCURVE",
"98 133 CURVE SMOOTH",
"98 112 OFFCURVE",
"61 100 OFFCURVE",
"0 100 CURVE",
"0 0 LINE",
"63 0 OFFCURVE",
"342 140 OFFCURVE",
"372 168 CURVE SMOOTH",
"390 184 OFFCURVE",
"419 241 OFFCURVE",
"419 255 CURVE SMOOTH",
"419 267 OFFCURVE",
"413 273 OFFCURVE",
"404 273 CURVE SMOOTH"
);
}
);
visible = 1;
width = 463;
}
);
unicode = 0639;
},
{
color = 5;
glyphname = "ain-ar.fina";
layers = (
{
layerId = "98B9451C-6456-42E9-9BE3-FFE7D6D9360C";
paths = (
{
closed = 1;
nodes = (
"-150 -383 OFFCURVE",
"-19 -508 OFFCURVE",
"107 -508 CURVE SMOOTH",
"223 -508 OFFCURVE",
"423 -411 OFFCURVE",
"423 -369 CURVE SMOOTH",
"423 -356 OFFCURVE",
"413 -349 OFFCURVE",
"400 -349 CURVE SMOOTH",
"370 -349 OFFCURVE",
"297 -368 OFFCURVE",
"105 -368 CURVE SMOOTH",
"-18 -368 OFFCURVE",
"-92 -310 OFFCURVE",
"-92 -171 CURVE SMOOTH",
"-92 -25 OFFCURVE",
"88 97 OFFCURVE",
"251 97 CURVE SMOOTH",
"268 97 OFFCURVE",
"339 0 OFFCURVE",
"430 0 CURVE",
"430 100 LINE",
"385 100 OFFCURVE",
"321 128 OFFCURVE",
"321 161 CURVE SMOOTH",
"321 177 OFFCURVE",
"373 216 OFFCURVE",
"373 267 CURVE SMOOTH",
"373 311 OFFCURVE",
"291 333 OFFCURVE",
"219 333 CURVE SMOOTH",
"138 333 OFFCURVE",
"51 270 OFFCURVE",
"51 221 CURVE SMOOTH",
"51 215 OFFCURVE",
"57 212 OFFCURVE",
"61 212 CURVE SMOOTH",
"102 212 OFFCURVE",
"182 171 OFFCURVE",
"182 156 CURVE SMOOTH",
"182 122 OFFCURVE",
"-150 80 OFFCURVE",
"-150 -213 CURVE SMOOTH"
);
}
);
width = 430;
}
);
unicode = FECA;
},
{
color = 5;
glyphname = "ain-ar.medi";
layers = (
{
backgroundImage = {
crop = "{{0, 0}, {765, 269}}";
imagePath = "../../../../Desktop/Screen Shot 2020-08-18 at 8.40.06 PM.png";
locked = "1";
transform = "{10, 0, 0, 10, -6451, -1457}";
};
layerId = "98B9451C-6456-42E9-9BE3-FFE7D6D9360C";
paths = (
{
closed = 1;
nodes = (
"0 0 LINE",
"133 0 OFFCURVE",
"238 97 OFFCURVE",
"251 97 CURVE SMOOTH",
"268 97 OFFCURVE",
"339 0 OFFCURVE",
"430 0 CURVE",
"430 100 LINE",
"385 100 OFFCURVE",
"321 128 OFFCURVE",
"321 161 CURVE SMOOTH",
"321 177 OFFCURVE",
"373 216 OFFCURVE",
"373 267 CURVE SMOOTH",
"373 311 OFFCURVE",
"291 333 OFFCURVE",
"219 333 CURVE SMOOTH",
"138 333 OFFCURVE",
"51 270 OFFCURVE",
"51 221 CURVE SMOOTH",
"51 215 OFFCURVE",
"57 212 OFFCURVE",
"61 212 CURVE SMOOTH",
"102 212 OFFCURVE",
"182 171 OFFCURVE",
"182 156 CURVE SMOOTH",
"182 141 OFFCURVE",
"101 100 OFFCURVE",
"0 100 CURVE"
);
}
);
width = 430;
}
);
unicode = FECC;
},
{
color = 5;
glyphname = "ain-ar.init";
layers = (
{
layerId = "98B9451C-6456-42E9-9BE3-FFE7D6D9360C";
paths = (
{
closed = 1;
nodes = (
"387 273 OFFCURVE",
"286 194 OFFCURVE",
"236 194 CURVE SMOOTH",
"173 194 OFFCURVE",
"107 283 OFFCURVE",
"107 305 CURVE SMOOTH",
"107 322 OFFCURVE",
"131 361 OFFCURVE",
"188 361 CURVE SMOOTH",
"221 361 OFFCURVE",
"281 344 OFFCURVE",
"297 344 CURVE SMOOTH",
"307 344 OFFCURVE",
"314 350 OFFCURVE",
"314 361 CURVE SMOOTH",
"314 381 OFFCURVE",
"211 438 OFFCURVE",
"179 438 CURVE SMOOTH",
"107 438 OFFCURVE",
"25 288 OFFCURVE",
"25 241 CURVE SMOOTH",
"25 191 OFFCURVE",
"98 147 OFFCURVE",
"98 133 CURVE SMOOTH",
"98 112 OFFCURVE",
"61 100 OFFCURVE",
"0 100 CURVE",
"0 0 LINE",
"63 0 OFFCURVE",
"342 140 OFFCURVE",
"372 168 CURVE SMOOTH",
"390 184 OFFCURVE",
"419 241 OFFCURVE",
"419 255 CURVE SMOOTH",
"419 267 OFFCURVE",
"413 273 OFFCURVE",
"404 273 CURVE SMOOTH"
);
}
);
width = 419;
}
);
unicode = FECB;
},
{
color = 5;
glyphname = "feh-ar.fina";
layers = (
{
components = (
{
name = "dotabove-ar";
transform = "{1, 0, 0, 1, 328, -152}";
}
);
layerId = "98B9451C-6456-42E9-9BE3-FFE7D6D9360C";
paths = (
{
closed = 1;
nodes = (
"385 134 OFFCURVE",
"366 145 OFFCURVE",
"366 177 CURVE SMOOTH",
"366 209 OFFCURVE",
"390 213 OFFCURVE",
"424 213 CURVE SMOOTH",
"455 213 OFFCURVE",
"494 202 OFFCURVE",
"494 180 CURVE SMOOTH",
"494 158 OFFCURVE",
"442 134 OFFCURVE",
"429 134 CURVE SMOOTH"
);
},
{
closed = 1;
nodes = (
"-130 66 OFFCURVE",
"-89 -8 OFFCURVE",
"93 -8 CURVE SMOOTH",
"183 -8 OFFCURVE",
"340 40 OFFCURVE",
"366 40 CURVE SMOOTH",
"386 40 OFFCURVE",
"478 0 OFFCURVE",
"600 0 CURVE",
"600 100 LINE",
"577 100 OFFCURVE",
"484 105 OFFCURVE",
"484 114 CURVE SMOOTH",
"484 123 OFFCURVE",
"548 156 OFFCURVE",
"548 194 CURVE SMOOTH",
"548 246 OFFCURVE",
"479 306 OFFCURVE",
"444 306 CURVE SMOOTH",
"411 306 OFFCURVE",
"309 252 OFFCURVE",
"309 177 CURVE SMOOTH",
"309 156 OFFCURVE",
"321 126 OFFCURVE",
"321 115 CURVE SMOOTH",
"321 104 OFFCURVE",
"240 100 OFFCURVE",
"171 100 CURVE SMOOTH",
"-53 100 OFFCURVE",
"-84 142 OFFCURVE",
"-84 202 CURVE SMOOTH",
"-84 235 OFFCURVE",
"-73 256 OFFCURVE",
"-73 272 CURVE SMOOTH",
"-73 284 OFFCURVE",
"-76 290 OFFCURVE",
"-86 290 CURVE SMOOTH",
"-98 290 OFFCURVE",
"-130 232 OFFCURVE",
"-130 164 CURVE SMOOTH"
);
}
);
width = 600;
}
);
unicode = FED2;
},
{
color = 5;
glyphname = "fehDotless-ar";
layers = (
{
backgroundImage = {
crop = "{{0, 0}, {199, 135}}";
imagePath = "../../../../Desktop/Screen Shot 2020-08-14 at 7.37.11 PM.png";
locked = "1";
transform = "{5, 0, 0, 5, -129, -115}";
};
layerId = "98B9451C-6456-42E9-9BE3-FFE7D6D9360C";
paths = (
{
closed = 1;
nodes = (
"569 275 OFFCURVE",
"563 199 OFFCURVE",
"500 199 CURVE SMOOTH",
"459 199 OFFCURVE",
"417 228 OFFCURVE",
"417 285 CURVE SMOOTH",
"417 344 OFFCURVE",
"462 445 OFFCURVE",
"506 445 CURVE SMOOTH",
"586 445 OFFCURVE",
"654 298 OFFCURVE",
"654 240 CURVE SMOOTH",
"654 93 OFFCURVE",
"602 -8 OFFCURVE",
"323 -8 CURVE SMOOTH",
"1 -8 OFFCURVE",
"0 66 OFFCURVE",
"0 164 CURVE SMOOTH",
"0 232 OFFCURVE",
"32 290 OFFCURVE",
"44 290 CURVE SMOOTH",
"54 290 OFFCURVE",
"57 284 OFFCURVE",
"57 272 CURVE SMOOTH",
"57 256 OFFCURVE",
"46 235 OFFCURVE",
"46 202 CURVE SMOOTH",
"46 142 OFFCURVE",
"77 100 OFFCURVE",
"301 100 CURVE SMOOTH",
"438 100 OFFCURVE",
"616 129 OFFCURVE",
"616 211 CURVE SMOOTH",
"616 244 OFFCURVE",
"598 275 OFFCURVE",
"584 275 CURVE SMOOTH"
);
},
{
closed = 1;
nodes = (
"523 296 OFFCURVE",
"543 306 OFFCURVE",
"543 320 CURVE SMOOTH",
"543 334 OFFCURVE",
"528 344 OFFCURVE",
"502 344 CURVE SMOOTH",
"474 344 OFFCURVE",
"459 334 OFFCURVE",
"459 320 CURVE SMOOTH",
"459 306 OFFCURVE",
"474 296 OFFCURVE",
"502 296 CURVE SMOOTH"
);
}
);
width = 654;
}
);
unicode = 06A1;
},
{
color = 5;
glyphname = "fehDotless-ar.fina";
layers = (
{
layerId = "98B9451C-6456-42E9-9BE3-FFE7D6D9360C";
paths = (
{
closed = 1;
nodes = (
"569 275 OFFCURVE",
"563 199 OFFCURVE",
"500 199 CURVE SMOOTH",
"459 199 OFFCURVE",
"417 228 OFFCURVE",
"417 285 CURVE SMOOTH",
"417 344 OFFCURVE",
"462 445 OFFCURVE",
"506 445 CURVE SMOOTH",
"586 445 OFFCURVE",
"654 298 OFFCURVE",
"654 240 CURVE SMOOTH",
"654 93 OFFCURVE",
"602 -8 OFFCURVE",
"323 -8 CURVE SMOOTH",
"1 -8 OFFCURVE",
"0 66 OFFCURVE",
"0 164 CURVE SMOOTH",
"0 232 OFFCURVE",
"32 290 OFFCURVE",
"44 290 CURVE SMOOTH",
"54 290 OFFCURVE",
"57 284 OFFCURVE",
"57 272 CURVE SMOOTH",
"57 256 OFFCURVE",
"46 235 OFFCURVE",
"46 202 CURVE SMOOTH",
"46 142 OFFCURVE",
"77 100 OFFCURVE",
"301 100 CURVE SMOOTH",
"438 100 OFFCURVE",
"616 129 OFFCURVE",
"616 211 CURVE SMOOTH",
"616 244 OFFCURVE",
"598 275 OFFCURVE",
"584 275 CURVE SMOOTH"
);
},
{
closed = 1;
nodes = (
"523 296 OFFCURVE",
"543 306 OFFCURVE",
"543 320 CURVE SMOOTH",
"543 334 OFFCURVE",
"528 344 OFFCURVE",
"502 344 CURVE SMOOTH",
"474 344 OFFCURVE",
"459 334 OFFCURVE",
"459 320 CURVE SMOOTH",
"459 306 OFFCURVE",
"474 296 OFFCURVE",
"502 296 CURVE SMOOTH"
);
}
);
width = 600;
}
);
},
{
color = 5;
glyphname = "fehDotless-ar.medi";
layers = (
{
anchors = (
{
name = bottom;
position = "{173, 0}";
},
{
name = top;
position = "{246, 357}";
}
);
layerId = "98B9451C-6456-42E9-9BE3-FFE7D6D9360C";
paths = (
{
closed = 1;
nodes = (
"0 0 LINE",
"93 0 OFFCURVE",
"159 47 OFFCURVE",
"180 47 CURVE SMOOTH",
"193 47 OFFCURVE",
"233 0 OFFCURVE",
"370 0 CURVE",
"370 100 LINE",
"321 100 OFFCURVE",
"275 113 OFFCURVE",
"275 125 CURVE SMOOTH",
"275 142 OFFCURVE",
"344 175 OFFCURVE",
"344 246 CURVE SMOOTH",
"344 297 OFFCURVE",
"303 347 OFFCURVE",
"268 347 CURVE SMOOTH",
"227 347 OFFCURVE",
"97 252 OFFCURVE",
"97 193 CURVE SMOOTH",
"97 165 OFFCURVE",
"115 135 OFFCURVE",
"115 118 CURVE SMOOTH",
"115 106 OFFCURVE",
"85 100 OFFCURVE",
"0 100 CURVE"
);
},
{
closed = 1;
nodes = (
"180 149 OFFCURVE",
"150 184 OFFCURVE",
"150 215 CURVE SMOOTH",
"150 238 OFFCURVE",
"196 255 OFFCURVE",
"219 255 CURVE SMOOTH",
"244 255 OFFCURVE",
"268 234 OFFCURVE",
"268 211 CURVE SMOOTH",
"268 178 OFFCURVE",
"224 149 OFFCURVE",
"205 149 CURVE SMOOTH"
);
}
);
width = 370;
}
);
},
{
color = 5;
glyphname = "fehDotless-ar.init";
layers = (
{
layerId = "98B9451C-6456-42E9-9BE3-FFE7D6D9360C";
paths = (
{
closed = 1;
nodes = (
"0 100 LINE",
"237 100 OFFCURVE",
"262 207 OFFCURVE",
"234 207 CURVE SMOOTH",
"217 207 OFFCURVE",
"192 153 OFFCURVE",
"124 153 CURVE SMOOTH",
"81 153 OFFCURVE",
"32 170 OFFCURVE",
"32 239 CURVE SMOOTH",
"32 317 OFFCURVE",
"85 420 OFFCURVE",
"137 420 CURVE SMOOTH",
"220 420 OFFCURVE",
"286 261 OFFCURVE",
"286 194 CURVE SMOOTH",
"286 157 OFFCURVE",
"260 96 OFFCURVE",
"242 72 CURVE SMOOTH",
"194 6 OFFCURVE",
"106 0 OFFCURVE",
"0 0 CURVE"
);
},
{
closed = 1;
nodes = (
"110 308 OFFCURVE",
"80 295 OFFCURVE",
"80 274 CURVE SMOOTH",
"80 250 OFFCURVE",
"106 243 OFFCURVE",
"137 243 CURVE SMOOTH",
"158 243 OFFCURVE",
"177 257 OFFCURVE",
"177 279 CURVE SMOOTH",
"177 301 OFFCURVE",
"145 308 OFFCURVE",
"137 310 CURVE SMOOTH"
);
}
);
width = 274;
}
);
},
{
color = 5;
glyphname = "qaf-ar";
layers = (
{
components = (
{
name = "twodotshorizontalabove-ar";
transform = "{1, 0, 0, 1, 378, -152}";
}
);
layerId = "98B9451C-6456-42E9-9BE3-FFE7D6D9360C";
paths = (
{
closed = 1;
nodes = (
"57 -372 OFFCURVE",
"0 -227 OFFCURVE",
"0 -81 CURVE SMOOTH",
"0 4 OFFCURVE",
"49 77 OFFCURVE",
"60 77 CURVE SMOOTH",
"76 77 OFFCURVE",
"82 62 OFFCURVE",
"82 44 CURVE SMOOTH",
"82 18 OFFCURVE",
"67 -13 OFFCURVE",
"67 -52 CURVE SMOOTH",
"67 -181 OFFCURVE",
"170 -228 OFFCURVE",
"338 -228 CURVE SMOOTH",
"562 -228 OFFCURVE",
"639 -62 OFFCURVE",
"639 -18 CURVE SMOOTH",
"639 -8 OFFCURVE",
"633 0 OFFCURVE",
"604 0 CURVE SMOOTH",
"503 0 OFFCURVE",
"439 37 OFFCURVE",
"439 100 CURVE SMOOTH",
"439 169 OFFCURVE",
"533 296 OFFCURVE",
"590 296 CURVE SMOOTH",
"640 296 OFFCURVE",
"691 225 OFFCURVE",
"691 46 CURVE SMOOTH",
"691 -101 OFFCURVE",
"596 -372 OFFCURVE",
"324 -372 CURVE SMOOTH"
);
},
{
closed = 1;
nodes = (
"524 195 OFFCURVE",
"486 143 OFFCURVE",
"486 127 CURVE SMOOTH",
"486 106 OFFCURVE",
"537 99 OFFCURVE",
"562 99 CURVE SMOOTH",
"616 99 OFFCURVE",
"645 106 OFFCURVE",
"645 119 CURVE SMOOTH",
"645 134 OFFCURVE",
"598 195 OFFCURVE",
"559 195 CURVE SMOOTH"
);
}
);
width = 691;
}
);
unicode = 0642;
},
{
color = 5;
glyphname = "qaf-ar.fina";
layers = (
{
components = (
{
name = "twodotshorizontalabove-ar";
transform = "{1, 0, 0, 1, 392, -154}";
}
);
layerId = "98B9451C-6456-42E9-9BE3-FFE7D6D9360C";
paths = (
{
closed = 1;
nodes = (
"87 -352 OFFCURVE",
"0 -227 OFFCURVE",
"0 -81 CURVE SMOOTH",
"0 4 OFFCURVE",
"49 77 OFFCURVE",
"60 77 CURVE SMOOTH",
"76 77 OFFCURVE",
"82 62 OFFCURVE",
"82 44 CURVE SMOOTH",
"82 18 OFFCURVE",
"67 -13 OFFCURVE",
"67 -52 CURVE SMOOTH",
"67 -181 OFFCURVE",
"170 -228 OFFCURVE",
"338 -228 CURVE SMOOTH",
"562 -228 OFFCURVE",
"639 -62 OFFCURVE",
"639 -18 CURVE SMOOTH",
"639 -8 OFFCURVE",
"633 0 OFFCURVE",
"604 0 CURVE SMOOTH",
"503 0 OFFCURVE",
"439 37 OFFCURVE",
"439 100 CURVE SMOOTH",
"439 169 OFFCURVE",
"533 296 OFFCURVE",
"590 296 CURVE SMOOTH",
"640 296 OFFCURVE",
"694 203 OFFCURVE",
"711 116 CURVE SMOOTH",
"713 104 OFFCURVE",
"718 100 OFFCURVE",
"780 100 CURVE",
"780 0 LINE",
"710 0 OFFCURVE",
"702 -11 OFFCURVE",
"698 -32 CURVE SMOOTH",
"664 -202 OFFCURVE",
"540 -352 OFFCURVE",
"274 -352 CURVE SMOOTH"
);
},
{
closed = 1;
nodes = (
"524 195 OFFCURVE",
"486 143 OFFCURVE",
"486 127 CURVE SMOOTH",
"486 106 OFFCURVE",
"537 99 OFFCURVE",
"562 99 CURVE SMOOTH",
"616 99 OFFCURVE",
"645 106 OFFCURVE",
"645 119 CURVE SMOOTH",
"645 134 OFFCURVE",
"598 195 OFFCURVE",
"559 195 CURVE SMOOTH"
);
}
);
width = 780;
}
);
unicode = FED6;
},
{
color = 5;
glyphname = "kaf-ar";
layers = (
{
layerId = "98B9451C-6456-42E9-9BE3-FFE7D6D9360C";
paths = (
{
closed = 1;
nodes = (
"0 42 OFFCURVE",
"128 -6 OFFCURVE",
"360 -6 CURVE SMOOTH",
"637 -6 OFFCURVE",
"654 0 OFFCURVE",
"654 134 CURVE SMOOTH",
"654 171 OFFCURVE",
"619 588 OFFCURVE",
"619 604 CURVE SMOOTH",
"619 618 OFFCURVE",
"637 646 OFFCURVE",
"637 661 CURVE SMOOTH",
"637 671 OFFCURVE",
"616 685 OFFCURVE",
"600 707 CURVE SMOOTH",
"583 729 OFFCURVE",
"579 762 OFFCURVE",
"563 762 CURVE SMOOTH",
"546 762 OFFCURVE",
"515 714 OFFCURVE",
"515 692 CURVE SMOOTH",
"515 662 OFFCURVE",
"531 649 OFFCURVE",
"536 618 CURVE SMOOTH",
"552 520 OFFCURVE",
"585 299 OFFCURVE",
"585 145 CURVE SMOOTH",
"585 109 OFFCURVE",
"569 100 OFFCURVE",
"337 102 CURVE SMOOTH",
"157 104 OFFCURVE",
"72 127 OFFCURVE",
"72 176 CURVE SMOOTH",
"72 228 OFFCURVE",
"81 249 OFFCURVE",
"81 267 CURVE SMOOTH",
"81 276 OFFCURVE",
"73 285 OFFCURVE",
"65 285 CURVE SMOOTH",
"49 285 OFFCURVE",
"0 214 OFFCURVE",
"0 131 CURVE SMOOTH"
);
},
{
closed = 1;
nodes = (
"453 208 OFFCURVE",
"488 256 OFFCURVE",
"488 285 CURVE SMOOTH",
"488 305 OFFCURVE",
"398 326 OFFCURVE",
"398 341 CURVE SMOOTH",
"398 350 OFFCURVE",
"407 358 OFFCURVE",
"414 358 CURVE SMOOTH",
"424 358 OFFCURVE",
"430 352 OFFCURVE",
"439 352 CURVE SMOOTH",
"451 352 OFFCURVE",
"470 376 OFFCURVE",
"470 393 CURVE SMOOTH",
"470 400 OFFCURVE",
"456 406 OFFCURVE",
"444 406 CURVE SMOOTH",
"424 406 OFFCURVE",
"332 343 OFFCURVE",
"332 308 CURVE SMOOTH",
"332 275 OFFCURVE",
"417 256 OFFCURVE",
"417 247 CURVE SMOOTH",
"417 240 OFFCURVE",
"386 223 OFFCURVE",
"294 223 CURVE SMOOTH",
"260 223 OFFCURVE",
"203 227 OFFCURVE",
"185 227 CURVE SMOOTH",
"176 227 OFFCURVE",
"171 223 OFFCURVE",
"171 215 CURVE SMOOTH",
"171 204 OFFCURVE",
"244 184 OFFCURVE",
"267 184 CURVE SMOOTH",
"311 184 OFFCURVE",
"387 189 OFFCURVE",
"412 196 CURVE SMOOTH"
);
}
);
width = 684;
}
);
unicode = 0643;
},
{
color = 5;
glyphname = "kaf-ar.fina";
layers = (
{
layerId = "98B9451C-6456-42E9-9BE3-FFE7D6D9360C";
paths = (
{
closed = 1;
nodes = (
"444 208 OFFCURVE",
"479 256 OFFCURVE",
"479 285 CURVE SMOOTH",
"479 305 OFFCURVE",
"389 326 OFFCURVE",
"389 341 CURVE SMOOTH",
"389 350 OFFCURVE",
"398 358 OFFCURVE",
"405 358 CURVE SMOOTH",
"415 358 OFFCURVE",
"421 352 OFFCURVE",
"430 352 CURVE SMOOTH",
"442 352 OFFCURVE",
"461 376 OFFCURVE",
"461 393 CURVE SMOOTH",
"461 400 OFFCURVE",
"447 406 OFFCURVE",
"435 406 CURVE SMOOTH",
"415 406 OFFCURVE",
"323 343 OFFCURVE",
"323 308 CURVE SMOOTH",
"323 275 OFFCURVE",
"408 256 OFFCURVE",
"408 247 CURVE SMOOTH",
"408 240 OFFCURVE",
"377 223 OFFCURVE",
"285 223 CURVE SMOOTH",
"251 223 OFFCURVE",
"194 227 OFFCURVE",
"176 227 CURVE SMOOTH",
"167 227 OFFCURVE",
"162 223 OFFCURVE",
"162 215 CURVE SMOOTH",
"162 204 OFFCURVE",
"235 184 OFFCURVE",
"258 184 CURVE SMOOTH",
"302 184 OFFCURVE",
"378 189 OFFCURVE",
"403 196 CURVE SMOOTH"
);
},
{
closed = 1;
nodes = (
"0 22 OFFCURVE",
"88 -6 OFFCURVE",
"220 -6 CURVE SMOOTH",
"671 -6 OFFCURVE",
"597 204 OFFCURVE",
"617 204 CURVE SMOOTH",
"626 204 OFFCURVE",
"665 0 OFFCURVE",
"780 0 CURVE",
"780 100 LINE",
"656 100 OFFCURVE",
"625 440 OFFCURVE",
"625 669 CURVE SMOOTH",
"625 690 OFFCURVE",
"623 700 OFFCURVE",
"610 700 CURVE SMOOTH",
"592 700 OFFCURVE",
"534 604 OFFCURVE",
"534 578 CURVE SMOOTH",
"534 520 OFFCURVE",
"572 312 OFFCURVE",
"572 176 CURVE SMOOTH",
"572 135 OFFCURVE",
"345 100 OFFCURVE",
"257 100 CURVE SMOOTH",
"197 100 OFFCURVE",
"52 77 OFFCURVE",
"52 176 CURVE SMOOTH",
"52 208 OFFCURVE",
"61 219 OFFCURVE",
"61 237 CURVE SMOOTH",
"61 246 OFFCURVE",
"53 255 OFFCURVE",
"45 255 CURVE SMOOTH",
"29 255 OFFCURVE",
"0 194 OFFCURVE",
"0 111 CURVE SMOOTH"
);
}
);
width = 780;
}
);
unicode = FEDA;
},
{
color = 5;
glyphname = "kaf-ar.medi";
layers = (
{
layerId = "98B9451C-6456-42E9-9BE3-FFE7D6D9360C";
paths = (
{
closed = 1;
nodes = (
"189 0 OFFCURVE",
"192 126 OFFCURVE",
"213 126 CURVE SMOOTH",
"241 126 OFFCURVE",
"298 0 OFFCURVE",
"456 0 CURVE",
"456 100 LINE",
"404 100 OFFCURVE",
"315 152 OFFCURVE",
"222 243 CURVE SMOOTH",
"136 327 OFFCURVE",
"37 442 OFFCURVE",
"37 459 CURVE SMOOTH",
"37 484 OFFCURVE",
"188 548 OFFCURVE",
"348 600 CURVE SMOOTH",
"377 609 OFFCURVE",
"427 656 OFFCURVE",
"427 671 CURVE SMOOTH",
"427 686 OFFCURVE",
"427 700 OFFCURVE",
"409 700 CURVE SMOOTH",
"374 700 OFFCURVE",
"106 570 OFFCURVE",
"14 529 CURVE SMOOTH",
"-14 516 OFFCURVE",
"-40 443 OFFCURVE",
"-40 420 CURVE SMOOTH",
"-40 380 OFFCURVE",
"160 227 OFFCURVE",
"160 170 CURVE SMOOTH",
"160 105 OFFCURVE",
"104 100 OFFCURVE",
"0 100 CURVE",
"0 0 LINE"
);
}
);
width = 456;
},
{
associatedMasterId = "98B9451C-6456-42E9-9BE3-FFE7D6D9360C";
layerId = "DE73B9C1-E327-44A2-9490-EEB73D01B07E";
name = "Aug 26 20, 07:18";
paths = (
{
closed = 1;
nodes = (
"0 0 LINE",
"79 0 OFFCURVE",
"127 8 OFFCURVE",
"206 8 CURVE SMOOTH",
"274 8 OFFCURVE",
"508 -8 OFFCURVE",
"576 -8 CURVE SMOOTH",
"624 -8 OFFCURVE",
"722 102 OFFCURVE",
"722 183 CURVE SMOOTH",
"722 240 OFFCURVE",
"610 300 OFFCURVE",
"528 300 CURVE SMOOTH",
"392 300 OFFCURVE",
"232 271 OFFCURVE",
"166 271 CURVE SMOOTH",
"139 271 OFFCURVE",
"128 284 OFFCURVE",
"128 298 CURVE SMOOTH",
"128 336 OFFCURVE",
"264 412 OFFCURVE",
"327 412 CURVE SMOOTH",
"349 412 OFFCURVE",
"367 392 OFFCURVE",
"384 392 CURVE SMOOTH",
"403 392 OFFCURVE",
"452 432 OFFCURVE",
"452 449 CURVE SMOOTH",
"452 471 OFFCURVE",
"373 512 OFFCURVE",
"339 512 CURVE SMOOTH",
"272 512 OFFCURVE",
"69 327 OFFCURVE",
"58 308 CURVE SMOOTH",
"47 288 OFFCURVE",
"37 264 OFFCURVE",
"37 231 CURVE SMOOTH",
"37 213 OFFCURVE",
"65 177 OFFCURVE",
"97 177 CURVE SMOOTH",
"242 177 OFFCURVE",
"374 204 OFFCURVE",
"482 204 CURVE SMOOTH",
"616 204 OFFCURVE",
"638 150 OFFCURVE",
"638 112 CURVE SMOOTH",
"638 103 OFFCURVE",
"619 97 OFFCURVE",
"604 97 CURVE SMOOTH",
"518 97 OFFCURVE",
"253 107 OFFCURVE",
"158 107 CURVE SMOOTH",
"73 107 OFFCURVE",
"79 99 OFFCURVE",
"0 100 CURVE"
);
},
{
closed = 1;
nodes = (
"676 165 OFFCURVE",
"658 142 OFFCURVE",
"658 94 CURVE SMOOTH",
"658 24 OFFCURVE",
"687 1 OFFCURVE",
"742 0 CURVE",
"742 100 LINE",
"722 100 OFFCURVE",
"701 125 OFFCURVE",
"701 147 CURVE SMOOTH",
"701 156 OFFCURVE",
"701 165 OFFCURVE",
"693 165 CURVE SMOOTH"
);
}
);
width = 742;
}
);
unicode = FEDC;
},
{
color = 5;
glyphname = "kaf-ar.medi.001";
layers = (
{
layerId = "98B9451C-6456-42E9-9BE3-FFE7D6D9360C";
paths = (
{
closed = 1;
nodes = (
"299 0 OFFCURVE",
"298 126 OFFCURVE",
"319 126 CURVE SMOOTH",
"347 126 OFFCURVE",
"314 0 OFFCURVE",
"742 0 CURVE",
"742 100 LINE",
"535 100 OFFCURVE",
"469 116 OFFCURVE",
"404 188 CURVE SMOOTH",
"324 277 OFFCURVE",
"113 526 OFFCURVE",
"113 543 CURVE SMOOTH",
"113 568 OFFCURVE",
"267 651 OFFCURVE",
"469 700 CURVE SMOOTH",
"498 707 OFFCURVE",
"553 765 OFFCURVE",
"553 780 CURVE SMOOTH",
"553 795 OFFCURVE",
"543 809 OFFCURVE",
"525 809 CURVE SMOOTH",
"490 809 OFFCURVE",
"202 679 OFFCURVE",
"110 638 CURVE SMOOTH",
"82 625 OFFCURVE",
"36 530 OFFCURVE",
"36 507 CURVE SMOOTH",
"36 467 OFFCURVE",
"286 227 OFFCURVE",
"286 170 CURVE SMOOTH",
"286 105 OFFCURVE",
"-2 100 OFFCURVE",
"0 100 CURVE",
"0 0 LINE"
);
}
);
width = 742;
}
);
},
{
color = 5;
glyphname = "kaf-ar.init";
layers = (
{
layerId = "98B9451C-6456-42E9-9BE3-FFE7D6D9360C";
paths = (
{
closed = 1;
nodes = (
"0 0 LINE",
"79 0 OFFCURVE",
"307 8 OFFCURVE",
"386 8 CURVE SMOOTH",
"454 8 OFFCURVE",
"528 -8 OFFCURVE",
"596 -8 CURVE SMOOTH",
"644 -8 OFFCURVE",
"742 102 OFFCURVE",
"742 183 CURVE SMOOTH",
"742 240 OFFCURVE",
"630 300 OFFCURVE",
"548 300 CURVE SMOOTH",
"412 300 OFFCURVE",
"232 271 OFFCURVE",
"166 271 CURVE SMOOTH",
"139 271 OFFCURVE",
"128 284 OFFCURVE",
"128 298 CURVE SMOOTH",
"128 336 OFFCURVE",
"281 412 OFFCURVE",
"344 412 CURVE SMOOTH",
"366 412 OFFCURVE",
"384 392 OFFCURVE",
"401 392 CURVE SMOOTH",
"420 392 OFFCURVE",
"469 432 OFFCURVE",
"469 449 CURVE SMOOTH",
"469 471 OFFCURVE",
"390 512 OFFCURVE",
"356 512 CURVE SMOOTH",
"289 512 OFFCURVE",
"69 327 OFFCURVE",
"58 308 CURVE SMOOTH",
"47 288 OFFCURVE",
"37 264 OFFCURVE",
"37 231 CURVE SMOOTH",
"37 213 OFFCURVE",
"65 177 OFFCURVE",
"97 177 CURVE SMOOTH",
"242 177 OFFCURVE",
"394 204 OFFCURVE",
"502 204 CURVE SMOOTH",
"636 204 OFFCURVE",
"658 150 OFFCURVE",
"658 112 CURVE SMOOTH",
"658 103 OFFCURVE",
"649 97 OFFCURVE",
"634 97 CURVE SMOOTH",
"548 97 OFFCURVE",
"433 107 OFFCURVE",
"338 107 CURVE SMOOTH",
"253 107 OFFCURVE",
"79 99 OFFCURVE",
"0 100 CURVE"
);
}
);
width = 741;
}
);
unicode = FEDB;
},
{
color = 5;
glyphname = "lam-ar";
layers = (
{
layerId = "98B9451C-6456-42E9-9BE3-FFE7D6D9360C";
paths = (
{
closed = 1;
nodes = (
"447 669 CURVE SMOOTH",
"447 683 OFFCURVE",
"440 700 OFFCURVE",
"433 700 CURVE SMOOTH",
"415 700 OFFCURVE",
"357 600 OFFCURVE",
"357 578 CURVE SMOOTH",
"357 520 OFFCURVE",
"445 93 OFFCURVE",
"445 -33 CURVE SMOOTH",
"445 -124 OFFCURVE",
"290 -148 OFFCURVE",
"197 -148 CURVE SMOOTH",
"97 -148 OFFCURVE",
"52 -63 OFFCURVE",
"52 36 CURVE SMOOTH",
"52 108 OFFCURVE",
"71 129 OFFCURVE",
"71 147 CURVE SMOOTH",
"71 156 OFFCURVE",
"63 165 OFFCURVE",
"55 165 CURVE SMOOTH",
"39 165 OFFCURVE",
"0 74 OFFCURVE",
"0 -29 CURVE SMOOTH",
"0 -118 OFFCURVE",
"28 -255 OFFCURVE",
"220 -256 CURVE SMOOTH",
"412 -257 OFFCURVE",
"498 -83 OFFCURVE",
"498 26 CURVE SMOOTH",
"498 83 OFFCURVE",
"443 562 OFFCURVE"
);
}
);
width = 518;
}
);
unicode = 0644;
},
{
color = 5;
glyphname = "lam-ar.fina";
layers = (
{
layerId = "98B9451C-6456-42E9-9BE3-FFE7D6D9360C";
paths = (
{
closed = 1;
nodes = (
"625 100 OFFCURVE",
"577 111 OFFCURVE",
"564 140 CURVE SMOOTH",
"520 241 OFFCURVE",
"497 510 OFFCURVE",
"497 669 CURVE SMOOTH",
"497 683 OFFCURVE",
"490 700 OFFCURVE",
"483 700 CURVE SMOOTH",
"465 700 OFFCURVE",
"407 600 OFFCURVE",
"407 578 CURVE SMOOTH",
"407 520 OFFCURVE",
"445 93 OFFCURVE",
"445 -33 CURVE SMOOTH",
"445 -124 OFFCURVE",
"290 -148 OFFCURVE",
"197 -148 CURVE SMOOTH",
"97 -148 OFFCURVE",
"52 -63 OFFCURVE",
"52 36 CURVE SMOOTH",
"52 108 OFFCURVE",
"71 129 OFFCURVE",
"71 147 CURVE SMOOTH",
"71 156 OFFCURVE",
"63 165 OFFCURVE",
"55 165 CURVE SMOOTH",
"39 165 OFFCURVE",
"0 74 OFFCURVE",
"0 -29 CURVE SMOOTH",
"0 -118 OFFCURVE",
"28 -255 OFFCURVE",
"220 -256 CURVE SMOOTH",
"412 -257 OFFCURVE",
"483 -108 OFFCURVE",
"491 -33 CURVE SMOOTH",
"499 38 OFFCURVE",
"481 204 OFFCURVE",
"490 204 CURVE SMOOTH",
"496 204 OFFCURVE",
"497 112 OFFCURVE",
"544 51 CURVE SMOOTH",
"567 22 OFFCURVE",
"609 0 OFFCURVE",
"653 0 CURVE",
"652 100 LINE"
);
}
);
width = 653;
}
);
unicode = FEDE;
},
{
color = 5;
glyphname = "lam-ar.medi";
layers = (
{
layerId = "98B9451C-6456-42E9-9BE3-FFE7D6D9360C";
paths = (
{
closed = 1;
nodes = (
"206 100 OFFCURVE",
"175 440 OFFCURVE",
"175 669 CURVE SMOOTH",
"175 690 OFFCURVE",
"173 700 OFFCURVE",
"160 700 CURVE SMOOTH",
"142 700 OFFCURVE",
"84 604 OFFCURVE",
"84 578 CURVE SMOOTH",
"84 520 OFFCURVE",
"122 302 OFFCURVE",
"122 166 CURVE SMOOTH",
"122 125 OFFCURVE",
"43 100 OFFCURVE",
"0 100 CURVE",
"0 0 LINE",
"76 -1 OFFCURVE",
"101 24 OFFCURVE",
"128 76 CURVE SMOOTH",
"152 126 OFFCURVE",
"161 204 OFFCURVE",
"167 204 CURVE SMOOTH",
"176 204 OFFCURVE",
"215 0 OFFCURVE",
"330 0 CURVE",
"330 100 LINE"
);
}
);
width = 330;
}
);
unicode = FEE0;
},
{
color = 5;
glyphname = "lam-ar.init";
layers = (
{
layerId = "98B9451C-6456-42E9-9BE3-FFE7D6D9360C";
paths = (
{
closed = 1;
nodes = (
"110 0 OFFCURVE",
"130 157 OFFCURVE",
"130 222 CURVE SMOOTH",
"130 259 OFFCURVE",
"95 526 OFFCURVE",
"95 542 CURVE SMOOTH",
"95 556 OFFCURVE",
"113 584 OFFCURVE",
"113 599 CURVE SMOOTH",
"113 609 OFFCURVE",
"92 623 OFFCURVE",
"76 645 CURVE SMOOTH",
"59 667 OFFCURVE",
"55 700 OFFCURVE",
"39 700 CURVE SMOOTH",
"22 700 OFFCURVE",
"-9 652 OFFCURVE",
"-9 630 CURVE SMOOTH",
"-9 600 OFFCURVE",
"7 587 OFFCURVE",
"12 556 CURVE SMOOTH",
"28 458 OFFCURVE",
"61 307 OFFCURVE",
"61 154 CURVE SMOOTH",
"61 109 OFFCURVE",
"42 100 OFFCURVE",
"0 100 CURVE",
"0 0 LINE"
);
}
);
width = 160;
},
{
associatedMasterId = "98B9451C-6456-42E9-9BE3-FFE7D6D9360C";
layerId = "0B1BFD28-9040-496E-9680-C38D17F6B8FF";
name = "Aug 18 20, 00:48";
paths = (
{
closed = 1;
nodes = (
"110 0 OFFCURVE",
"130 207 OFFCURVE",
"130 282 CURVE SMOOTH",
"130 308 OFFCURVE",
"87 700 OFFCURVE",
"56 700 CURVE SMOOTH",
"38 700 OFFCURVE",
"0 624 OFFCURVE",
"0 598 CURVE SMOOTH",
"0 540 OFFCURVE",
"61 369 OFFCURVE",
"61 154 CURVE SMOOTH",
"61 109 OFFCURVE",
"42 100 OFFCURVE",
"0 100 CURVE",
"0 0 LINE"
);
}
);
visible = 1;
width = 160;
}
);
unicode = FEDF;
},
{
color = 5;
glyphname = "meem-ar";
layers = (
{
layerId = "98B9451C-6456-42E9-9BE3-FFE7D6D9360C";
paths = (
{
closed = 1;
nodes = (
"118 310 OFFCURVE",
"361 191 OFFCURVE",
"361 131 CURVE SMOOTH",
"361 106 OFFCURVE",
"332 0 OFFCURVE",
"313 0 CURVE SMOOTH",
"285 0 OFFCURVE",
"245 13 OFFCURVE",
"221 13 CURVE SMOOTH",
"144 13 OFFCURVE",
"84 -4 OFFCURVE",
"84 -105 CURVE SMOOTH",
"84 -146 OFFCURVE",
"125 -322 OFFCURVE",
"125 -371 CURVE SMOOTH",
"125 -419 OFFCURVE",
"110 -500 OFFCURVE",
"93 -500 CURVE SMOOTH",
"84 -500 OFFCURVE",
"65 -492 OFFCURVE",
"65 -465 CURVE SMOOTH",
"65 -441 OFFCURVE",
"60 -412 OFFCURVE",
"60 -394 CURVE SMOOTH",
"60 -359 OFFCURVE",
"0 -175 OFFCURVE",
"0 -63 CURVE SMOOTH",
"0 100 OFFCURVE",
"215 78 OFFCURVE",
"215 100 CURVE SMOOTH",
"215 115 OFFCURVE",
"54 184 OFFCURVE",
"40 184 CURVE SMOOTH",
"22 184 OFFCURVE",
"0 154 OFFCURVE",
"-12 154 CURVE SMOOTH",
"-23 154 OFFCURVE",
"-29 162 OFFCURVE",
"-29 176 CURVE SMOOTH",
"-29 195 OFFCURVE",
"31 310 OFFCURVE",
"87 310 CURVE SMOOTH"
);
}
);
width = 361;
}
);
unicode = 0645;
},
{
color = 5;
glyphname = "meem-ar.fina";
layers = (
{
layerId = "98B9451C-6456-42E9-9BE3-FFE7D6D9360C";
paths = (
{
closed = 1;
nodes = (
"463 100 LINE",
"281 100 OFFCURVE",
"264 266 OFFCURVE",
"217 266 CURVE SMOOTH",
"182 266 OFFCURVE",
"40 206 OFFCURVE",
"40 129 CURVE SMOOTH",
"40 -25 OFFCURVE",
"80 -51 OFFCURVE",
"83 -166 CURVE SMOOTH",
"84 -219 OFFCURVE",
"59 -305 OFFCURVE",
"59 -360 CURVE SMOOTH",
"59 -385 OFFCURVE",
"55 -418 OFFCURVE",
"83 -418 CURVE SMOOTH",
"100 -418 OFFCURVE",
"162 -330 OFFCURVE",
"162 -275 CURVE SMOOTH",
"162 -187 OFFCURVE",
"71 26 OFFCURVE",
"103 26 CURVE SMOOTH",
"149 26 OFFCURVE",
"192 -49 OFFCURVE",
"247 -48 CURVE SMOOTH",
"302 -47 OFFCURVE",
"300 46 OFFCURVE",
"338 44 CURVE",
"379 30 OFFCURVE",
"386 -3 OFFCURVE",
"463 0 CURVE"
);
},
{
closed = 1;
nodes = (
"241 163 OFFCURVE",
"275 73 OFFCURVE",
"255 73 CURVE SMOOTH",
"219 73 OFFCURVE",
"162 110 OFFCURVE",
"162 128 CURVE SMOOTH",
"162 149 OFFCURVE",
"199 163 OFFCURVE",
"217 163 CURVE SMOOTH"
);
}
);
width = 463;
}
);
unicode = FEE2;
},
{
color = 5;
glyphname = "meem-ar.medi";
layers = (
{
layerId = "98B9451C-6456-42E9-9BE3-FFE7D6D9360C";
paths = (
{
closed = 1;
nodes = (
"464 100 LINE",
"282 100 OFFCURVE",
"265 266 OFFCURVE",
"218 266 CURVE SMOOTH",
"183 266 OFFCURVE",
"81 206 OFFCURVE",
"81 129 CURVE SMOOTH",
"81 108 OFFCURVE",
"55 100 OFFCURVE",
"0 100 CURVE",
"0 0 LINE",
"34 -2 OFFCURVE",
"58 26 OFFCURVE",
"104 26 CURVE SMOOTH",
"150 26 OFFCURVE",
"193 -49 OFFCURVE",
"248 -48 CURVE SMOOTH",
"303 -47 OFFCURVE",
"301 46 OFFCURVE",
"339 44 CURVE",
"380 30 OFFCURVE",
"387 -3 OFFCURVE",
"464 0 CURVE"
);
},
{
closed = 1;
nodes = (
"242 163 OFFCURVE",
"276 73 OFFCURVE",
"256 73 CURVE SMOOTH",
"220 73 OFFCURVE",
"163 110 OFFCURVE",
"163 128 CURVE SMOOTH",
"163 149 OFFCURVE",
"200 163 OFFCURVE",
"218 163 CURVE SMOOTH"
);
}
);
width = 464;
}
);
unicode = FEE4;
},
{
color = 5;
glyphname = "meem-ar.init";
layers = (
{
layerId = "98B9451C-6456-42E9-9BE3-FFE7D6D9360C";
paths = (
{
closed = 1;
nodes = (
"133 0 OFFCURVE",
"181 100 OFFCURVE",
"208 100 CURVE SMOOTH",
"265 100 OFFCURVE",
"331 53 OFFCURVE",
"394 53 CURVE SMOOTH",
"448 53 OFFCURVE",
"462 106 OFFCURVE",
"462 155 CURVE SMOOTH",
"462 243 OFFCURVE",
"392 358 OFFCURVE",
"329 358 CURVE SMOOTH",
"266 358 OFFCURVE",
"245 232 OFFCURVE",
"196 232 CURVE SMOOTH",
"153 232 OFFCURVE",
"175 100 OFFCURVE",
"0 100 CURVE",
"0 0 LINE"
);
},
{
closed = 1;
nodes = (
"303 192 OFFCURVE",
"251 204 OFFCURVE",
"251 220 CURVE SMOOTH",
"251 240 OFFCURVE",
"279 257 OFFCURVE",
"291 257 CURVE SMOOTH",
"305 257 OFFCURVE",
"342 220 OFFCURVE",
"342 209 CURVE SMOOTH",
"342 197 OFFCURVE",
"339 192 OFFCURVE",
"321 192 CURVE SMOOTH"
);
}
);
width = 462;
}
);
unicode = FEE3;
},
{
color = 5;
glyphname = "noonghunna-ar";
layers = (
{
layerId = "98B9451C-6456-42E9-9BE3-FFE7D6D9360C";
paths = (
{
closed = 1;
nodes = (
"138 -321 OFFCURVE",
"90 -183 OFFCURVE",
"90 -84 CURVE SMOOTH",
"90 55 OFFCURVE",
"147 145 OFFCURVE",
"159 145 CURVE SMOOTH",
"169 145 OFFCURVE",
"173 137 OFFCURVE",
"173 129 CURVE SMOOTH",
"173 121 OFFCURVE",
"147 73 OFFCURVE",
"147 -10 CURVE SMOOTH",
"147 -88 OFFCURVE",
"179 -192 OFFCURVE",
"302 -192 CURVE SMOOTH",
"558 -192 OFFCURVE",
"595 -69 OFFCURVE",
"595 -36 CURVE SMOOTH",
"595 3 OFFCURVE",
"494 137 OFFCURVE",
"494 175 CURVE SMOOTH",
"494 206 OFFCURVE",
"531 272 OFFCURVE",
"553 272 CURVE SMOOTH",
"595 272 OFFCURVE",
"666 35 OFFCURVE",
"666 -2 CURVE SMOOTH",
"666 -74 OFFCURVE",
"555 -321 OFFCURVE",
"315 -321 CURVE SMOOTH"
);
}
);
width = 686;
},
{
associatedMasterId = "98B9451C-6456-42E9-9BE3-FFE7D6D9360C";
layerId = "46B45A6D-7AF5-4196-B01A-EBD5EFEFE25E";
name = "Jul 19 20, 17:11";
paths = (
{
closed = 1;
nodes = (
"87 -350 OFFCURVE",
"30 -219 OFFCURVE",
"30 -100 CURVE SMOOTH",
"30 38 OFFCURVE",
"99 178 OFFCURVE",
"113 178 CURVE SMOOTH",
"125 178 OFFCURVE",
"130 168 OFFCURVE",
"130 158 CURVE SMOOTH",
"130 148 OFFCURVE",
"98 90 OFFCURVE",
"98 -10 CURVE SMOOTH",
"98 -104 OFFCURVE",
"137 -230 OFFCURVE",
"286 -230 CURVE SMOOTH",
"596 -230 OFFCURVE",
"640 -111 OFFCURVE",
"640 -42 CURVE SMOOTH",
"640 6 OFFCURVE",
"518 168 OFFCURVE",
"518 214 CURVE SMOOTH",
"518 251 OFFCURVE",
"563 331 OFFCURVE",
"590 331 CURVE SMOOTH",
"611 331 OFFCURVE",
"684 161 OFFCURVE",
"698 140 CURVE SMOOTH",
"719 107 OFFCURVE",
"742 100 OFFCURVE",
"816 100 CURVE",
"816 0 LINE",
"750 0 OFFCURVE",
"736 -12 OFFCURVE",
"724 -42 CURVE SMOOTH",
"664 -188 OFFCURVE",
"532 -350 OFFCURVE",
"302 -350 CURVE SMOOTH"
);
}
);
visible = 1;
width = 746;
}
);
unicode = 06BA;
},
{
color = 5;
glyphname = "noonghunna-ar.fina";
layers = (
{
layerId = "98B9451C-6456-42E9-9BE3-FFE7D6D9360C";
paths = (
{
closed = 1;
nodes = (
"47 -311 OFFCURVE",
"0 -183 OFFCURVE",
"0 -84 CURVE SMOOTH",
"0 30 OFFCURVE",
"57 145 OFFCURVE",
"69 145 CURVE SMOOTH",
"79 145 OFFCURVE",
"83 137 OFFCURVE",
"83 129 CURVE SMOOTH",
"83 121 OFFCURVE",
"56 73 OFFCURVE",
"56 -10 CURVE SMOOTH",
"56 -88 OFFCURVE",
"89 -192 OFFCURVE",
"212 -192 CURVE SMOOTH",
"468 -192 OFFCURVE",
"504 -83 OFFCURVE",
"504 -26 CURVE SMOOTH",
"504 14 OFFCURVE",
"404 148 OFFCURVE",
"404 185 CURVE SMOOTH",
"404 214 OFFCURVE",
"438 282 OFFCURVE",
"463 282 CURVE SMOOTH",
"483 282 OFFCURVE",
"524 172 OFFCURVE",
"544 147 CURVE SMOOTH",
"576 107 OFFCURVE",
"589 100 OFFCURVE",
"656 100 CURVE",
"656 0 LINE",
"595 0 OFFCURVE",
"584 -12 OFFCURVE",
"574 -36 CURVE SMOOTH",
"524 -157 OFFCURVE",
"415 -311 OFFCURVE",
"225 -311 CURVE SMOOTH"
);
}
);
width = 656;
}
);
unicode = FB9F;
},
{
color = 5;
glyphname = "heh-ar";
layers = (
{
anchors = (
{
name = bottom;
position = "{200, -17}";
},
{
name = top;
position = "{218, 482}";
}
);
backgroundImage = {
crop = "{{0, 0}, {380, 204}}";
imagePath = "../../../../Desktop/Screen Shot 2020-08-25 at 7.11.01 PM.png";
locked = "1";
transform = "{13, 0, 0, 13, -2191, -1048}";
};
layerId = "98B9451C-6456-42E9-9BE3-FFE7D6D9360C";
paths = (
{
closed = 1;
nodes = (
"52 0 OFFCURVE",
"30 70 OFFCURVE",
"30 131 CURVE SMOOTH",
"30 243 OFFCURVE",
"135 340 OFFCURVE",
"135 362 CURVE SMOOTH",
"135 377 OFFCURVE",
"125 387 OFFCURVE",
"125 400 CURVE SMOOTH",
"125 418 OFFCURVE",
"176 462 OFFCURVE",
"199 462 CURVE SMOOTH",
"234 462 OFFCURVE",
"384 275 OFFCURVE",
"384 198 CURVE SMOOTH",
"384 56 OFFCURVE",
"305 0 OFFCURVE",
"134 0 CURVE SMOOTH"
);
},
{
closed = 1;
nodes = (
"169 317 CURVE SMOOTH",
"146 317 OFFCURVE",
"98 232 OFFCURVE",
"98 188 CURVE SMOOTH",
"98 131 OFFCURVE",
"144 100 OFFCURVE",
"179 100 CURVE SMOOTH",
"251 100 OFFCURVE",
"307 125 OFFCURVE",
"307 153 CURVE SMOOTH",
"307 183 OFFCURVE",
"206 317 OFFCURVE"
);
}
);
width = 431;
}
);
unicode = 0647;
},
{
color = 5;
glyphname = "heh-ar.fina";
layers = (
{
anchors = (
{
name = bottom;
position = "{137, -35}";
},
{
name = top;
position = "{286, 390}";
}
);
layerId = "98B9451C-6456-42E9-9BE3-FFE7D6D9360C";
paths = (
{
closed = 1;
nodes = (
"398 100 OFFCURVE",
"370 107 OFFCURVE",
"370 167 CURVE SMOOTH",
"370 297 OFFCURVE",
"376 344 OFFCURVE",
"376 380 CURVE SMOOTH",
"376 394 OFFCURVE",
"368 402 OFFCURVE",
"357 402 CURVE SMOOTH",
"350 402 OFFCURVE",
"312 363 OFFCURVE",
"306 352 CURVE SMOOTH",
"298 338 OFFCURVE",
"293 322 OFFCURVE",
"293 300 CURVE SMOOTH",
"293 246 OFFCURVE",
"0 183 OFFCURVE",
"0 70 CURVE SMOOTH",
"0 40 OFFCURVE",
"41 -10 OFFCURVE",
"83 -10 CURVE SMOOTH",
"229 -10 OFFCURVE",
"267 69 OFFCURVE",
"308 69 CURVE SMOOTH",
"331 69 OFFCURVE",
"340 1 OFFCURVE",
"431 0 CURVE",
"431 100 LINE"
);
},
{
closed = 1;
nodes = (
"142 90 OFFCURVE",
"127 104 OFFCURVE",
"127 118 CURVE SMOOTH",
"127 140 OFFCURVE",
"238 208 OFFCURVE",
"259 208 CURVE SMOOTH",
"278 208 OFFCURVE",
"286 200 OFFCURVE",
"286 167 CURVE SMOOTH",
"286 119 OFFCURVE",
"269 90 OFFCURVE",
"182 90 CURVE"
);
}
);
width = 431;
}
);
unicode = FEEA;
},
{
color = 5;
glyphname = "heh-ar.medi";
layers = (
{
layerId = "98B9451C-6456-42E9-9BE3-FFE7D6D9360C";
paths = (
{
closed = 1;
nodes = (
"0 0 LINE",
"19 0 OFFCURVE",
"38 0 OFFCURVE",
"38 -18 CURVE SMOOTH",
"38 -173 OFFCURVE",
"129 -276 OFFCURVE",
"218 -276 CURVE SMOOTH",
"321 -276 OFFCURVE",
"342 -167 OFFCURVE",
"342 -94 CURVE SMOOTH",
"342 -61 OFFCURVE",
"319 -31 OFFCURVE",
"319 -14 CURVE SMOOTH",
"319 -6 OFFCURVE",
"331 0 OFFCURVE",
"352 0 CURVE",
"352 100 LINE",
"252 100 OFFCURVE",
"207 105 OFFCURVE",
"207 123 CURVE SMOOTH",
"207 138 OFFCURVE",
"276 184 OFFCURVE",
"276 272 CURVE SMOOTH",
"276 335 OFFCURVE",
"178 401 OFFCURVE",
"151 401 CURVE SMOOTH",
"111 401 OFFCURVE",
"36 261 OFFCURVE",
"36 131 CURVE SMOOTH",
"36 107 OFFCURVE",
"23 100 OFFCURVE",
"0 100 CURVE"
);
},
{
closed = 1;
nodes = (
"91 120 OFFCURVE",
"76 128 OFFCURVE",
"76 141 CURVE SMOOTH",
"76 231 OFFCURVE",
"127 284 OFFCURVE",
"144 284 CURVE SMOOTH",
"163 284 OFFCURVE",
"216 243 OFFCURVE",
"216 216 CURVE SMOOTH",
"216 176 OFFCURVE",
"166 120 OFFCURVE",
"102 120 CURVE SMOOTH"
);
},
{
closed = 1;
nodes = (
"155 -166 OFFCURVE",
"82 -39 OFFCURVE",
"82 -22 CURVE SMOOTH",
"82 -9 OFFCURVE",
"87 0 OFFCURVE",
"96 0 CURVE SMOOTH",
"205 0 OFFCURVE",
"285 -59 OFFCURVE",
"285 -122 CURVE SMOOTH",
"285 -148 OFFCURVE",
"261 -166 OFFCURVE",
"228 -166 CURVE SMOOTH"
);
}
);
width = 352;
}
);
unicode = FEEC;
},
{
color = 5;
glyphname = "heh-ar.init";
layers = (
{
layerId = "98B9451C-6456-42E9-9BE3-FFE7D6D9360C";
paths = (
{
closed = 1;
nodes = (
"339 448 OFFCURVE",
"430 243 OFFCURVE",
"430 170 CURVE SMOOTH",
"430 143 OFFCURVE",
"369 37 OFFCURVE",
"333 37 CURVE SMOOTH",
"263 37 OFFCURVE",
"203 81 OFFCURVE",
"191 81 CURVE SMOOTH",
"175 81 OFFCURVE",
"57 0 OFFCURVE",
"0 0 CURVE",
"0 100 LINE",
"36 100 OFFCURVE",
"119 106 OFFCURVE",
"119 120 CURVE SMOOTH",
"119 130 OFFCURVE",
"67 167 OFFCURVE",
"67 189 CURVE SMOOTH",
"67 258 OFFCURVE",
"206 347 OFFCURVE",
"206 356 CURVE SMOOTH",
"206 363 OFFCURVE",
"195 369 OFFCURVE",
"195 380 CURVE SMOOTH",
"195 392 OFFCURVE",
"260 448 OFFCURVE",
"298 448 CURVE SMOOTH"
);
},
{
closed = 1;
nodes = (
"151 284 OFFCURVE",
"128 256 OFFCURVE",
"128 217 CURVE SMOOTH",
"128 208 OFFCURVE",
"183 181 OFFCURVE",
"198 181 CURVE SMOOTH",
"223 181 OFFCURVE",
"244 186 OFFCURVE",
"245 205 CURVE SMOOTH",
"246 233 OFFCURVE",
"215 284 OFFCURVE",
"199 284 CURVE SMOOTH"
);
},
{
closed = 1;
nodes = (
"354 130 OFFCURVE",
"365 135 OFFCURVE",
"365 148 CURVE SMOOTH",
"365 164 OFFCURVE",
"336 240 OFFCURVE",
"314 240 CURVE SMOOTH",
"305 240 OFFCURVE",
"254 172 OFFCURVE",
"254 163 CURVE SMOOTH",
"254 150 OFFCURVE",
"304 128 OFFCURVE",
"348 130 CURVE SMOOTH"
);
}
);
width = 500;
}
);
unicode = FEEB;
},
{
color = 5;
glyphname = "waw-ar";
layers = (
{
backgroundImage = {
crop = "{{0, 0}, {146, 141}}";
imagePath = "../../../../Desktop/Screen Shot 2020-08-18 at 7.04.58 PM.png";
transform = "{1, 0, 0, 1, 419, 198}";
};
layerId = "98B9451C-6456-42E9-9BE3-FFE7D6D9360C";
paths = (
{
closed = 1;
nodes = (
"135 -294 OFFCURVE",
"-30 -218 OFFCURVE",
"-30 -188 CURVE SMOOTH",
"-30 -176 OFFCURVE",
"-22 -165 OFFCURVE",
"-11 -165 CURVE SMOOTH",
"9 -165 OFFCURVE",
"124 -179 OFFCURVE",
"194 -179 CURVE SMOOTH",
"238 -179 OFFCURVE",
"342 6 OFFCURVE",
"342 50 CURVE SMOOTH",
"342 54 OFFCURVE",
"340 57 OFFCURVE",
"335 57 CURVE SMOOTH",
"330 57 OFFCURVE",
"261 0 OFFCURVE",
"204 0 CURVE SMOOTH",
"163 0 OFFCURVE",
"129 73 OFFCURVE",
"129 112 CURVE SMOOTH",
"129 191 OFFCURVE",
"227 282 OFFCURVE",
"280 282 CURVE SMOOTH",
"323 282 OFFCURVE",
"381 145 OFFCURVE",
"381 58 CURVE SMOOTH",
"381 -19 OFFCURVE",
"313 -294 OFFCURVE",
"182 -294 CURVE SMOOTH"
);
},
{
closed = 1;
nodes = (
"214 185 OFFCURVE",
"166 145 OFFCURVE",
"166 129 CURVE SMOOTH",
"166 101 OFFCURVE",
"227 95 OFFCURVE",
"242 95 CURVE SMOOTH",
"274 95 OFFCURVE",
"315 107 OFFCURVE",
"315 117 CURVE SMOOTH",
"315 132 OFFCURVE",
"275 185 OFFCURVE",
"249 185 CURVE SMOOTH"
);
}
);
width = 381;
},
{
associatedMasterId = "98B9451C-6456-42E9-9BE3-FFE7D6D9360C";
layerId = "192AC2FB-306D-408A-88DB-93884F8FE422";
name = "Aug 16 20, 23:29";
paths = (
{
closed = 1;
nodes = (
"135 -296 OFFCURVE",
"-30 -220 OFFCURVE",
"-30 -190 CURVE SMOOTH",
"-30 -178 OFFCURVE",
"-22 -167 OFFCURVE",
"-11 -167 CURVE SMOOTH",
"9 -167 OFFCURVE",
"124 -181 OFFCURVE",
"194 -181 CURVE SMOOTH",
"238 -181 OFFCURVE",
"309 -62 OFFCURVE",
"309 -18 CURVE SMOOTH",
"309 -8 OFFCURVE",
"303 0 OFFCURVE",
"274 0 CURVE SMOOTH",
"173 0 OFFCURVE",
"109 37 OFFCURVE",
"109 100 CURVE SMOOTH",
"109 169 OFFCURVE",
"203 296 OFFCURVE",
"260 296 CURVE SMOOTH",
"310 296 OFFCURVE",
"364 203 OFFCURVE",
"381 116 CURVE SMOOTH",
"383 104 OFFCURVE",
"388 100 OFFCURVE",
"450 100 CURVE",
"450 0 LINE",
"380 0 OFFCURVE",
"372 -11 OFFCURVE",
"368 -32 CURVE SMOOTH",
"334 -202 OFFCURVE",
"268 -296 OFFCURVE",
"182 -296 CURVE SMOOTH"
);
},
{
closed = 1;
nodes = (
"194 195 OFFCURVE",
"156 143 OFFCURVE",
"156 127 CURVE SMOOTH",
"156 106 OFFCURVE",
"207 99 OFFCURVE",
"232 99 CURVE SMOOTH",
"286 99 OFFCURVE",
"315 106 OFFCURVE",
"315 119 CURVE SMOOTH",
"315 134 OFFCURVE",
"268 195 OFFCURVE",
"229 195 CURVE SMOOTH"
);
}
);
visible = 1;
width = 600;
}
);
unicode = 0648;
},
{
color = 5;
glyphname = "waw-ar.001";
layers = (
{
layerId = "98B9451C-6456-42E9-9BE3-FFE7D6D9360C";
paths = (
{
closed = 1;
nodes = (
"353 122 OFFCURVE",
"349 86 OFFCURVE",
"276 93 CURVE SMOOTH",
"203 100 OFFCURVE",
"148 156 OFFCURVE",
"141 203 CURVE SMOOTH",
"134 250 OFFCURVE",
"253 443 OFFCURVE",
"301 441 CURVE SMOOTH",
"349 439 OFFCURVE",
"472 182 OFFCURVE",
"467 141 CURVE SMOOTH",
"462 100 OFFCURVE",
"377 -344 OFFCURVE",
"201 -341 CURVE SMOOTH",
"25 -338 OFFCURVE",
"-207 -216 OFFCURVE",
"-205 -128 CURVE",
"-119 -25 LINE",
"-69 -60 LINE",
"-2 -116 OFFCURVE",
"15 -239 OFFCURVE",
"132 -229 CURVE SMOOTH",
"249 -219 OFFCURVE",
"348 7 OFFCURVE",
"359 38 CURVE SMOOTH",
"391 136 LINE"
);
},
{
closed = 1;
nodes = (
"314 216 OFFCURVE",
"336 237 OFFCURVE",
"336 264 CURVE SMOOTH",
"336 291 OFFCURVE",
"314 312 OFFCURVE",
"288 312 CURVE SMOOTH",
"261 312 OFFCURVE",
"239 291 OFFCURVE",
"239 264 CURVE SMOOTH",
"239 237 OFFCURVE",
"261 216 OFFCURVE",
"288 216 CURVE SMOOTH"
);
}
);
width = 600;
}
);
},
{
color = 5;
glyphname = "waw-ar.fina";
layers = (
{
layerId = "98B9451C-6456-42E9-9BE3-FFE7D6D9360C";
paths = (
{
closed = 1;
nodes = (
"135 -296 OFFCURVE",
"-30 -220 OFFCURVE",
"-30 -190 CURVE SMOOTH",
"-30 -178 OFFCURVE",
"-22 -167 OFFCURVE",
"-11 -167 CURVE SMOOTH",
"9 -167 OFFCURVE",
"124 -181 OFFCURVE",
"194 -181 CURVE SMOOTH",
"238 -181 OFFCURVE",
"309 -62 OFFCURVE",
"309 -18 CURVE SMOOTH",
"309 -8 OFFCURVE",
"303 0 OFFCURVE",
"274 0 CURVE SMOOTH",
"173 0 OFFCURVE",
"109 37 OFFCURVE",
"109 100 CURVE SMOOTH",
"109 169 OFFCURVE",
"203 296 OFFCURVE",
"260 296 CURVE SMOOTH",
"310 296 OFFCURVE",
"364 203 OFFCURVE",
"381 116 CURVE SMOOTH",
"383 104 OFFCURVE",
"398 100 OFFCURVE",
"460 100 CURVE",
"460 0 LINE",
"390 0 OFFCURVE",
"372 -11 OFFCURVE",
"368 -32 CURVE SMOOTH",
"334 -202 OFFCURVE",
"268 -296 OFFCURVE",
"182 -296 CURVE SMOOTH"
);
},
{
closed = 1;
nodes = (
"194 195 OFFCURVE",
"156 143 OFFCURVE",
"156 127 CURVE SMOOTH",
"156 106 OFFCURVE",
"207 99 OFFCURVE",
"232 99 CURVE SMOOTH",
"286 99 OFFCURVE",
"315 106 OFFCURVE",
"315 119 CURVE SMOOTH",
"315 134 OFFCURVE",
"268 195 OFFCURVE",
"229 195 CURVE SMOOTH"
);
}
);
width = 460;
}
);
unicode = FEEE;
},
{
color = 5;
glyphname = "alefMaksura-ar";
layers = (
{
layerId = "98B9451C-6456-42E9-9BE3-FFE7D6D9360C";
paths = (
{
closed = 1;
nodes = (
"726 362 OFFCURVE",
"756 440 OFFCURVE",
"756 466 CURVE SMOOTH",
"756 489 OFFCURVE",
"742 506 OFFCURVE",
"707 506 CURVE SMOOTH",
"635 506 OFFCURVE",
"441 311 OFFCURVE",
"441 163 CURVE SMOOTH",
"441 70 OFFCURVE",
"611 76 OFFCURVE",
"611 51 CURVE SMOOTH",
"611 0 OFFCURVE",
"355 -76 OFFCURVE",
"296 -76 CURVE SMOOTH",
"183 -76 OFFCURVE",
"106 13 OFFCURVE",
"106 127 CURVE SMOOTH",
"106 158 OFFCURVE",
"127 243 OFFCURVE",
"127 269 CURVE SMOOTH",
"127 283 OFFCURVE",
"118 292 OFFCURVE",
"105 292 CURVE SMOOTH",
"88 292 OFFCURVE",
"40 168 OFFCURVE",
"40 65 CURVE SMOOTH",
"40 -56 OFFCURVE",
"115 -209 OFFCURVE",
"270 -209 CURVE SMOOTH",
"425 -209 OFFCURVE",
"702 -33 OFFCURVE",
"702 100 CURVE SMOOTH",
"702 127 OFFCURVE",
"681 154 OFFCURVE",
"626 171 CURVE SMOOTH",
"569 189 OFFCURVE",
"508 202 OFFCURVE",
"508 241 CURVE SMOOTH",
"508 277 OFFCURVE",
"616 393 OFFCURVE",
"654 393 CURVE SMOOTH",
"677 393 OFFCURVE",
"689 362 OFFCURVE",
"712 362 CURVE SMOOTH"
);
}
);
width = 746;
}
);
unicode = 0649;
},
{
color = 5;
glyphname = "alefMaksura-ar.fina";
layers = (
{
anchors = (
{
name = bottom;
position = "{285, -303}";
},
{
name = top;
position = "{256, 184}";
}
);
layerId = "98B9451C-6456-42E9-9BE3-FFE7D6D9360C";
paths = (
{
closed = 1;
nodes = (
"424 -300 OFFCURVE",
"539 -120 OFFCURVE",
"539 -52 CURVE SMOOTH",
"539 18 OFFCURVE",
"373 -8 OFFCURVE",
"373 46 CURVE SMOOTH",
"373 81 OFFCURVE",
"445 131 OFFCURVE",
"475 131 CURVE SMOOTH",
"532 131 OFFCURVE",
"526 0 OFFCURVE",
"631 0 CURVE",
"631 100 LINE",
"582 100 OFFCURVE",
"537 227 OFFCURVE",
"504 227 CURVE SMOOTH",
"440 227 OFFCURVE",
"321 91 OFFCURVE",
"321 0 CURVE SMOOTH",
"321 -90 OFFCURVE",
"465 -68 OFFCURVE",
"465 -106 CURVE SMOOTH",
"465 -142 OFFCURVE",
"295 -200 OFFCURVE",
"221 -200 CURVE SMOOTH",
"75 -200 OFFCURVE",
"50 -89 OFFCURVE",
"50 -58 CURVE SMOOTH",
"50 20 OFFCURVE",
"80 72 OFFCURVE",
"80 83 CURVE SMOOTH",
"80 91 OFFCURVE",
"75 100 OFFCURVE",
"66 100 CURVE SMOOTH",
"55 100 OFFCURVE",
"0 0 OFFCURVE",
"0 -111 CURVE SMOOTH",
"0 -201 OFFCURVE",
"67 -300 OFFCURVE",
"186 -300 CURVE SMOOTH"
);
}
);
width = 631;
}
);
unicode = FEF0;
},
{
color = 5;
glyphname = "kashida-ar";
layers = (
{
layerId = "98B9451C-6456-42E9-9BE3-FFE7D6D9360C";
paths = (
{
closed = 1;
nodes = (
"0 0 LINE",
"250 0 LINE",
"250 100 LINE",
"0 100 LINE"
);
}
);
width = 250;
}
);
unicode = 0640;
},
{
color = 5;
glyphname = "lam_alef-ar";
layers = (
{
layerId = "98B9451C-6456-42E9-9BE3-FFE7D6D9360C";
paths = (
{
closed = 1;
nodes = (
"500 447 LINE",
"433 326 LINE",
"481 200 LINE",
"529 58 LINE",
"515 -3 LINE",
"79 3 LINE",
"147 123 LINE",
"303 276 LINE",
"177 436 LINE",
"99 766 LINE",
"177 767 LINE",
"259 464 LINE",
"363 352 LINE",
"412 509 LINE",
"423 773 LINE",
"501 790 LINE"
);
},
{
closed = 1;
nodes = (
"226 77 LINE",
"437 75 LINE",
"372 203 LINE"
);
}
);
width = 615;
}
);
unicode = FEFB;
},
{
color = 5;
glyphname = "lam_alef-ar.fina";
layers = (
{
layerId = "98B9451C-6456-42E9-9BE3-FFE7D6D9360C";
paths = (
{
closed = 1;
nodes = (
"445 100 OFFCURVE",
"414 440 OFFCURVE",
"414 669 CURVE SMOOTH",
"414 690 OFFCURVE",
"412 700 OFFCURVE",
"399 700 CURVE SMOOTH",
"381 700 OFFCURVE",
"323 604 OFFCURVE",
"323 578 CURVE SMOOTH",
"323 520 OFFCURVE",
"361 302 OFFCURVE",
"361 166 CURVE SMOOTH",
"361 90 OFFCURVE",
"30 68 OFFCURVE",
"30 37 CURVE SMOOTH",
"30 13 OFFCURVE",
"178 8 OFFCURVE",
"239 0 CURVE",
"315 -1 OFFCURVE",
"340 24 OFFCURVE",
"367 76 CURVE SMOOTH",
"391 126 OFFCURVE",
"400 204 OFFCURVE",
"406 204 CURVE SMOOTH",
"415 204 OFFCURVE",
"454 0 OFFCURVE",
"569 0 CURVE",
"569 100 LINE"
);
},
{
closed = 1;
nodes = (
"311 150 OFFCURVE",
"315 219 OFFCURVE",
"311 270 CURVE SMOOTH",
"305 344 OFFCURVE",
"149 700 OFFCURVE",
"125 700 CURVE SMOOTH",
"106 700 OFFCURVE",
"84 619 OFFCURVE",
"84 605 CURVE SMOOTH",
"84 560 OFFCURVE",
"224 386 OFFCURVE",
"280 166 CURVE SMOOTH",
"283 154 OFFCURVE",
"283 150 OFFCURVE",
"293 150 CURVE SMOOTH"
);
}
);
width = 569;
}
);
leftMetricsKey = "alef-ar.fina";
rightMetricsKey = "lam-ar.medi";
unicode = FEFC;
},
{
color = 5;
glyphname = "lam_alefWasla-ar";
layers = (
{
layerId = "98B9451C-6456-42E9-9BE3-FFE7D6D9360C";
paths = (
{
closed = 1;
nodes = (
"361 447 LINE",
"294 326 LINE",
"342 200 LINE",
"390 58 LINE",
"376 -3 LINE",
"-60 3 LINE",
"8 123 LINE",
"164 276 LINE",
"38 436 LINE",
"-40 766 LINE",
"38 767 LINE",
"120 464 LINE",
"224 352 LINE",
"273 509 LINE",
"284 773 LINE",
"362 790 LINE"
);
},
{
closed = 1;
nodes = (
"87 77 LINE",
"298 75 LINE",
"233 203 LINE"
);
}
);
width = 420;
}
);
leftMetricsKey = "alefWasla-ar.fina";
rightMetricsKey = "lam-ar.init";
},
{
color = 5;
glyphname = period;
layers = (
{
layerId = "98B9451C-6456-42E9-9BE3-FFE7D6D9360C";
paths = (
{
closed = 1;
nodes = (
"116 30 OFFCURVE",
"170 85 OFFCURVE",
"170 100 CURVE SMOOTH",
"170 116 OFFCURVE",
"116 170 OFFCURVE",
"100 170 CURVE SMOOTH",
"84 170 OFFCURVE",
"30 116 OFFCURVE",
"30 100 CURVE SMOOTH",
"30 85 OFFCURVE",
"84 30 OFFCURVE",
"100 30 CURVE SMOOTH"
);
}
);
width = 210;
}
);
unicode = 002E;
},
{
glyphname = "dotcenter-ar";
layers = (
{
layerId = "98B9451C-6456-42E9-9BE3-FFE7D6D9360C";
paths = (
{
closed = 1;
nodes = (
"102 233 OFFCURVE",
"150 282 OFFCURVE",
"150 303 CURVE SMOOTH",
"150 325 OFFCURVE",
"102 373 OFFCURVE",
"80 373 CURVE SMOOTH",
"58 373 OFFCURVE",
"10 325 OFFCURVE",
"10 303 CURVE SMOOTH",
"10 282 OFFCURVE",
"58 233 OFFCURVE",
"80 233 CURVE SMOOTH"
);
}
);
width = 160;
}
);
},
{
glyphname = "twodotsverticalabove-ar";
layers = (
{
layerId = "98B9451C-6456-42E9-9BE3-FFE7D6D9360C";
paths = (
{
closed = 1;
nodes = (
"10 575 OFFCURVE",
"64 520 OFFCURVE",
"80 520 CURVE SMOOTH",
"102 520 OFFCURVE",
"135 575 OFFCURVE",
"160 575 CURVE SMOOTH",
"185 575 OFFCURVE",
"218 520 OFFCURVE",
"240 520 CURVE SMOOTH",
"256 520 OFFCURVE",
"310 575 OFFCURVE",
"310 590 CURVE SMOOTH",
"310 606 OFFCURVE",
"256 660 OFFCURVE",
"240 660 CURVE SMOOTH",
"218 660 OFFCURVE",
"185 606 OFFCURVE",
"160 606 CURVE SMOOTH",
"135 606 OFFCURVE",
"102 660 OFFCURVE",
"80 660 CURVE SMOOTH",
"64 660 OFFCURVE",
"10 606 OFFCURVE",
"10 590 CURVE SMOOTH"
);
}
);
width = 320;
},
{
associatedMasterId = "98B9451C-6456-42E9-9BE3-FFE7D6D9360C";
layerId = "B872D70E-3F65-4480-8F02-5F77564B19D3";
name = "Jul 19 20, 12:59";
paths = (
{
closed = 1;
nodes = (
"96 520 OFFCURVE",
"150 575 OFFCURVE",
"150 590 CURVE SMOOTH",
"150 606 OFFCURVE",
"96 660 OFFCURVE",
"80 660 CURVE SMOOTH",
"64 660 OFFCURVE",
"10 606 OFFCURVE",
"10 590 CURVE SMOOTH",
"10 575 OFFCURVE",
"64 520 OFFCURVE",
"80 520 CURVE SMOOTH"
);
},
{
closed = 1;
nodes = (
"256 520 OFFCURVE",
"310 575 OFFCURVE",
"310 590 CURVE SMOOTH",
"310 606 OFFCURVE",
"256 660 OFFCURVE",
"240 660 CURVE SMOOTH",
"224 660 OFFCURVE",
"170 606 OFFCURVE",
"170 590 CURVE SMOOTH",
"170 575 OFFCURVE",
"224 520 OFFCURVE",
"240 520 CURVE SMOOTH"
);
}
);
visible = 1;
width = 320;
}
);
},
{
glyphname = "twodotshorizontalabove-ar";
layers = (
{
anchors = (
{
name = _top;
position = "{185, 476}";
},
{
name = top;
position = "{160, 700}";
}
);
layerId = "98B9451C-6456-42E9-9BE3-FFE7D6D9360C";
paths = (
{
closed = 1;
nodes = (
"111 506 OFFCURVE",
"135 575 OFFCURVE",
"160 575 CURVE SMOOTH",
"185 575 OFFCURVE",
"210 528 OFFCURVE",
"240 528 CURVE SMOOTH",
"265 528 OFFCURVE",
"311 575 OFFCURVE",
"311 600 CURVE SMOOTH",
"311 624 OFFCURVE",
"267 671 OFFCURVE",
"240 671 CURVE SMOOTH",
"212 671 OFFCURVE",
"185 605 OFFCURVE",
"160 605 CURVE SMOOTH",
"135 605 OFFCURVE",
"109 646 OFFCURVE",
"80 646 CURVE SMOOTH",
"53 646 OFFCURVE",
"13 596 OFFCURVE",
"13 570 CURVE SMOOTH",
"13 536 OFFCURVE",
"53 506 OFFCURVE",
"80 506 CURVE SMOOTH"
);
}
);
width = 320;
}
);
},
{
color = 5;
glyphname = "wasla-ar";
layers = (
{
layerId = "98B9451C-6456-42E9-9BE3-FFE7D6D9360C";
paths = (
{
closed = 1;
nodes = (
"184 757 LINE",
"207 767 LINE",
"213 780 LINE",
"199 792 LINE",
"178 786 LINE",
"157 756 LINE"
);
},
{
closed = 1;
nodes = (
"161 809 LINE",
"211 825 LINE",
"264 786 LINE",
"250 716 LINE",
"177 675 LINE",
"91 691 LINE",
"42 703 LINE",
"26 682 LINE",
"0 683 LINE",
"0 704 LINE",
"31 770 LINE",
"114 766 LINE",
"128 774 LINE"
);
}
);
width = 264;
}
);
},
{
color = 5;
glyphname = "hamzaabove-ar";
layers = (
{
layerId = "98B9451C-6456-42E9-9BE3-FFE7D6D9360C";
paths = (
{
closed = 1;
nodes = (
"34 731 OFFCURVE",
"175 771 OFFCURVE",
"183 779 CURVE SMOOTH",
"189 785 OFFCURVE",
"193 822 OFFCURVE",
"183 822 CURVE SMOOTH",
"173 822 OFFCURVE",
"153 812 OFFCURVE",
"140 812 CURVE SMOOTH",
"127 812 OFFCURVE",
"77 831 OFFCURVE",
"77 846 CURVE SMOOTH",
"77 857 OFFCURVE",
"85 866 OFFCURVE",
"98 866 CURVE SMOOTH",
"108 866 OFFCURVE",
"124 842 OFFCURVE",
"137 842 CURVE SMOOTH",
"148 842 OFFCURVE",
"172 865 OFFCURVE",
"172 874 CURVE SMOOTH",
"172 890 OFFCURVE",
"150 912 OFFCURVE",
"123 912 CURVE SMOOTH",
"94 912 OFFCURVE",
"28 857 OFFCURVE",
"28 827 CURVE SMOOTH",
"28 801 OFFCURVE",
"48 795 OFFCURVE",
"48 788 CURVE SMOOTH",
"48 781 OFFCURVE",
"28 771 OFFCURVE",
"24 765 CURVE SMOOTH",
"21 761 OFFCURVE",
"15 746 OFFCURVE",
"15 737 CURVE SMOOTH",
"15 733 OFFCURVE",
"19 731 OFFCURVE",
"22 731 CURVE SMOOTH"
);
}
);
width = 200;
}
);
unicode = 0654;
},
{
color = 5;
glyphname = "hamzabelow-ar";
layers = (
{
layerId = "98B9451C-6456-42E9-9BE3-FFE7D6D9360C";
paths = (
{
closed = 1;
nodes = (
"47 -249 OFFCURVE",
"82 -234 OFFCURVE",
"117 -223 CURVE SMOOTH",
"149 -213 OFFCURVE",
"176 -217 OFFCURVE",
"185 -208 CURVE SMOOTH",
"190 -203 OFFCURVE",
"193 -168 OFFCURVE",
"183 -168 CURVE SMOOTH",
"173 -168 OFFCURVE",
"153 -178 OFFCURVE",
"140 -178 CURVE SMOOTH",
"127 -178 OFFCURVE",
"94 -160 OFFCURVE",
"94 -145 CURVE SMOOTH",
"94 -134 OFFCURVE",
"102 -123 OFFCURVE",
"115 -123 CURVE SMOOTH",
"125 -123 OFFCURVE",
"136 -134 OFFCURVE",
"149 -134 CURVE SMOOTH",
"160 -134 OFFCURVE",
"172 -115 OFFCURVE",
"172 -106 CURVE SMOOTH",
"172 -90 OFFCURVE",
"149 -78 OFFCURVE",
"113 -78 CURVE SMOOTH",
"84 -78 OFFCURVE",
"38 -123 OFFCURVE",
"38 -163 CURVE SMOOTH",
"38 -199 OFFCURVE",
"71 -197 OFFCURVE",
"71 -206 CURVE SMOOTH",
"71 -213 OFFCURVE",
"28 -224 OFFCURVE",
"28 -232 CURVE SMOOTH",
"28 -243 OFFCURVE",
"35 -249 OFFCURVE",
"41 -249 CURVE SMOOTH"
);
}
);
width = 216;
}
);
unicode = 0655;
},
{
color = 5;
glyphname = "madda-ar";
layers = (
{
layerId = "98B9451C-6456-42E9-9BE3-FFE7D6D9360C";
paths = (
{
closed = 1;
nodes = (
"339 783 OFFCURVE",
"310 770 OFFCURVE",
"274 770 CURVE SMOOTH",
"211 770 OFFCURVE",
"146 789 OFFCURVE",
"91 819 CURVE",
"25 715 LINE",
"51 704 LINE",
"81 732 LINE",
"126 700 OFFCURVE",
"158 681 OFFCURVE",
"215 681 CURVE SMOOTH",
"314 681 OFFCURVE",
"359 737 OFFCURVE",
"387 777 CURVE",
"376 808 LINE"
);
}
);
width = 387;
}
);
unicode = 0653;
},
